# Blender 5.0.1
# www.blender.org
mtllib hl2_box_6_rust_stain.mtl
o Cube
v 1.000000 1.000000 -1.000000
v 1.000000 -1.000000 -1.000000
v 1.000000 1.000000 1.000000
v 1.000000 -1.000000 1.000000
v -1.000000 1.000000 -1.000000
v -1.000000 -1.000000 -1.000000
v -1.000000 1.000000 1.000000
v -1.000000 -1.000000 1.000000
vn -0.0000 1.0000 -0.0000
vn -0.0000 -0.0000 1.0000
vn -1.0000 -0.0000 -0.0000
vn -0.0000 -1.0000 -0.0000
vn 1.0000 -0.0000 -0.0000
vn -0.0000 -0.0000 -1.0000
vt 1.001475 -0.001920
vt 2.002968 -0.001920
vt 2.002968 0.999573
vt 1.001475 0.999573
vt -0.000018 0.999573
vt 1.001475 2.001066
vt -0.000018 2.001066
vt -0.000018 -2.004905
vt 1.001475 -2.004905
vt 1.001475 -1.003413
vt -0.000018 -1.003413
vt -1.001510 -0.001920
vt -0.000018 -0.001920
vt -1.001510 0.999573
s 0
usemtl Material
f 1/1/1 5/2/1 7/3/1 3/4/1
f 4/5/2 3/4/2 7/6/2 8/7/2
f 8/8/3 7/9/3 5/10/3 6/11/3
f 6/12/4 2/13/4 4/5/4 8/14/4
f 2/13/5 1/1/5 3/4/5 4/5/5
f 6/11/6 5/10/6 1/1/6 2/13/6