# Blender 5.0.0
# www.blender.org
mtllib Metal_Frame_12_scratches.mtl
o metal_frame
v 0.379646 -0.452169 0.499325
v 0.000697 -0.035117 0.499325
v -0.378261 -0.452169 0.499325
v 0.454967 0.499182 0.499325
v -0.453588 0.499182 0.499325
v -0.453588 -0.500728 0.499325
v 0.454967 -0.500728 0.499325
v 0.410844 0.416281 0.499325
v 0.031896 -0.000781 0.499325
v -0.030501 -0.000781 0.499325
v -0.409465 0.416287 0.499325
v -0.409465 -0.417838 0.499325
v 0.379650 0.450623 0.499325
v 0.000697 0.033555 0.499325
v -0.378265 0.450623 0.499325
v 0.000697 -0.035117 0.453644
v -0.378261 -0.452169 0.453644
v 0.454967 0.499182 0.453643
v -0.453588 0.499182 0.453644
v -0.453588 -0.500728 0.453644
v 0.454967 -0.500728 0.453644
v 0.410844 -0.417832 0.453644
v 0.410844 0.416281 0.453644
v 0.031896 -0.000781 0.453644
v -0.030501 -0.000781 0.453644
v -0.409465 0.416287 0.453644
v -0.409465 -0.417838 0.453644
v 0.379650 0.450623 0.453644
v 0.000697 0.033555 0.453644
v -0.378265 0.450623 0.453644
v 0.454967 -0.417832 0.499325
v 0.410844 -0.417832 0.499325
v 0.454967 -0.417832 0.453644
v 0.379646 -0.500728 0.499325
v 0.379646 -0.452169 0.453644
v 0.379646 -0.500728 0.453644
v -0.378259 -0.500728 0.453644
v -0.378259 -0.500728 0.499325
v -0.453588 -0.417856 0.499325
v -0.453588 -0.417856 0.453644
v -0.453588 0.416287 0.453644
v -0.453588 0.416287 0.499325
v -0.378265 0.499182 0.499325
v -0.378265 0.499182 0.453644
v 0.379650 0.499182 0.499325
v 0.379650 0.499182 0.453644
v 0.454967 0.416281 0.499325
v 0.454967 0.416281 0.453643
v -0.378186 -0.452169 -0.500675
v 0.000763 -0.035117 -0.500675
v 0.379721 -0.452169 -0.500675
v -0.453507 0.499182 -0.500675
v 0.455048 0.499182 -0.500675
v 0.455048 -0.500728 -0.500675
v -0.453507 -0.500728 -0.500675
v -0.409384 0.416281 -0.500675
v -0.030436 -0.000781 -0.500675
v 0.031961 -0.000781 -0.500675
v 0.410925 0.416287 -0.500675
v 0.410925 -0.417838 -0.500675
v -0.378190 0.450622 -0.500675
v 0.000763 0.033554 -0.500675
v 0.379725 0.450622 -0.500675
v 0.000763 -0.035117 -0.454992
v 0.379721 -0.452169 -0.454992
v -0.453507 0.499182 -0.454992
v 0.455048 0.499182 -0.454992
v 0.455048 -0.500728 -0.454992
v -0.453507 -0.500728 -0.454992
v -0.409384 -0.417832 -0.454992
v -0.409384 0.416281 -0.454992
v -0.030436 -0.000781 -0.454992
v 0.031961 -0.000781 -0.454992
v 0.410925 0.416287 -0.454992
v 0.410925 -0.417838 -0.454992
v -0.378190 0.450622 -0.454992
v 0.000763 0.033554 -0.454992
v 0.379725 0.450622 -0.454992
v -0.453507 -0.417832 -0.500675
v -0.409384 -0.417832 -0.500675
v -0.453507 -0.417832 -0.454992
v -0.378186 -0.500728 -0.500675
v -0.378186 -0.452169 -0.454992
v -0.378186 -0.500728 -0.454992
v 0.379719 -0.500728 -0.454992
v 0.379719 -0.500728 -0.500675
v 0.455048 -0.417856 -0.500675
v 0.455048 -0.417856 -0.454992
v 0.455048 0.416287 -0.454992
v 0.455048 0.416287 -0.500675
v 0.379725 0.499182 -0.500675
v 0.379725 0.499182 -0.454992
v -0.378190 0.499182 -0.500675
v -0.378190 0.499182 -0.454992
v -0.453507 0.416281 -0.500675
v -0.453507 0.416281 -0.454992
v 0.455048 -0.452169 0.378323
v 0.455048 -0.035117 -0.000626
v 0.455048 -0.452169 -0.379585
v 0.455048 0.499182 0.453643
v 0.455048 0.499182 -0.454911
v 0.455048 -0.500728 -0.454912
v 0.455048 -0.500728 0.453644
v 0.455048 0.416281 0.409520
v 0.455048 -0.000781 0.030573
v 0.455048 -0.000781 -0.031825
v 0.455048 0.416287 -0.410788
v 0.455048 -0.417838 -0.410788
v 0.455048 0.450623 0.378326
v 0.455048 0.033554 -0.000626
v 0.455048 0.450623 -0.379588
v 0.500730 -0.035117 -0.000626
v 0.500730 -0.452169 -0.379585
v 0.500730 0.499182 0.453643
v 0.500730 0.499182 -0.454911
v 0.500730 -0.500728 -0.454912
v 0.500730 -0.500728 0.453644
v 0.500730 -0.417832 0.409520
v 0.500730 0.416281 0.409520
v 0.500730 -0.000781 0.030573
v 0.500730 -0.000781 -0.031825
v 0.500730 0.416287 -0.410788
v 0.500730 -0.417838 -0.410788
v 0.500730 0.450623 0.378326
v 0.500730 0.033554 -0.000626
v 0.500730 0.450623 -0.379588
v 0.455048 -0.417832 0.453644
v 0.455048 -0.417832 0.409520
v 0.500730 -0.417832 0.453644
v 0.455048 -0.500728 0.378323
v 0.500730 -0.452169 0.378323
v 0.500730 -0.500728 0.378323
v 0.500730 -0.500728 -0.379583
v 0.455048 -0.500728 -0.379583
v 0.455048 -0.417856 -0.454912
v 0.500730 -0.417856 -0.454912
v 0.500730 0.416287 -0.454911
v 0.455048 0.416287 -0.454911
v 0.455048 0.499182 -0.379588
v 0.500730 0.499182 -0.379588
v 0.455048 0.499182 0.378326
v 0.500730 0.499182 0.378326
v 0.455048 0.416281 0.453643
v 0.500730 0.416281 0.453643
v -0.453588 -0.452169 -0.379671
v -0.453588 -0.035117 -0.000723
v -0.453587 -0.452169 0.378236
v -0.453588 0.499182 -0.454992
v -0.453587 0.499182 0.453562
v -0.453587 -0.500728 0.453562
v -0.453588 -0.500728 -0.454992
v -0.453588 0.416281 -0.410869
v -0.453588 -0.000781 -0.031922
v -0.453588 -0.000781 0.030475
v -0.453587 0.416287 0.409440
v -0.453587 -0.417838 0.409439
v -0.453588 0.450623 -0.379675
v -0.453588 0.033554 -0.000723
v -0.453587 0.450623 0.378240
v -0.499270 -0.035117 -0.000723
v -0.499269 -0.452169 0.378236
v -0.499270 0.499182 -0.454992
v -0.499269 0.499182 0.453562
v -0.499269 -0.500728 0.453562
v -0.499270 -0.500728 -0.454992
v -0.499270 -0.417832 -0.410869
v -0.499270 0.416281 -0.410869
v -0.499270 -0.000781 -0.031922
v -0.499270 -0.000781 0.030476
v -0.499269 0.416287 0.409440
v -0.499269 -0.417838 0.409439
v -0.499270 0.450623 -0.379675
v -0.499270 0.033554 -0.000723
v -0.499269 0.450623 0.378240
v -0.453588 -0.417832 -0.454992
v -0.453588 -0.417832 -0.410869
v -0.499270 -0.417832 -0.454992
v -0.453588 -0.500728 -0.379671
v -0.499270 -0.452169 -0.379671
v -0.499270 -0.500728 -0.379671
v -0.499269 -0.500728 0.378233
v -0.453587 -0.500728 0.378233
v -0.453587 -0.417856 0.453562
v -0.499269 -0.417856 0.453562
v -0.499269 0.416287 0.453562
v -0.453587 0.416287 0.453562
v -0.453587 0.499182 0.378240
v -0.499269 0.499182 0.378240
v -0.453588 0.499182 -0.379675
v -0.499270 0.499182 -0.379675
v -0.453588 0.416281 -0.454992
v -0.499270 0.416281 -0.454992
v -0.453588 0.413348 -0.454992
v -0.453588 0.413348 -0.377000
v -0.453588 0.499182 -0.454992
v -0.453588 0.499182 -0.377000
v -0.375596 0.413348 -0.454992
v -0.375596 0.413348 -0.377000
v -0.375596 0.499182 -0.454992
v -0.375596 0.499182 -0.377000
v -0.453588 0.456265 -0.454992
v -0.453588 0.413348 -0.415997
v -0.453588 0.456265 -0.377000
v -0.414592 0.499182 -0.454992
v -0.414592 0.499182 -0.377000
v -0.375596 0.456265 -0.454992
v -0.375596 0.456265 -0.377000
v -0.375596 0.413348 -0.415997
v -0.414592 0.413348 -0.454992
v -0.414592 0.413348 -0.377000
v -0.414592 0.456265 -0.454992
v 0.377056 0.413348 -0.454992
v -0.414592 0.499182 -0.415997
v -0.453588 0.456265 -0.415997
v 0.377056 0.499182 -0.415996
v 0.377056 0.456265 -0.454992
v 0.377056 0.456265 -0.377001
v 0.377056 0.413348 -0.415996
v 0.377056 0.413348 -0.377001
v 0.377056 0.499182 -0.454992
v 0.377056 0.499182 -0.377001
v 0.455048 0.413348 -0.454992
v 0.455048 0.413348 -0.377001
v 0.455048 0.499182 -0.454992
v 0.455048 0.499182 -0.377001
v 0.416052 0.499182 -0.454992
v 0.416052 0.499182 -0.377001
v 0.455048 0.456265 -0.454992
v 0.455048 0.456265 -0.377001
v 0.416052 0.413348 -0.454992
v 0.416052 0.456265 -0.454992
v -0.453588 -0.414984 -0.415997
v 0.455048 -0.414984 -0.415996
v 0.455048 -0.414984 -0.454992
v 0.416052 -0.414984 -0.454992
v 0.416052 -0.414984 -0.377000
v -0.453588 -0.414984 -0.454992
v -0.375596 -0.500817 -0.377000
v -0.453588 -0.500817 -0.415997
v -0.414592 -0.414984 -0.454992
v -0.375596 -0.414984 -0.415997
v 0.377056 -0.500817 -0.454992
v -0.453588 -0.457901 -0.415997
v 0.377056 -0.414984 -0.415996
v 0.377056 -0.457901 -0.454992
v 0.377056 -0.500817 -0.415996
v 0.377056 -0.414984 -0.454992
v 0.455048 -0.500817 -0.377000
v 0.455048 -0.457901 -0.454992
v 0.455048 -0.500817 -0.415996
v 0.416052 -0.500817 -0.454992
v 0.416052 -0.500817 -0.377000
v 0.416052 -0.500817 -0.415996
v 0.455048 -0.457901 -0.415996
v 0.455048 0.456265 -0.415996
v -0.414592 -0.500817 -0.415997
v -0.300331 0.456265 -0.377000
v 0.301791 0.456265 -0.377000
v 0.301791 0.413348 -0.415996
v -0.300331 0.413348 -0.415997
v 0.301791 0.456265 -0.454992
v -0.300331 0.456265 -0.454992
v -0.453588 -0.332150 -0.415997
v -0.453588 0.330515 -0.415997
v -0.300331 0.499182 -0.377000
v 0.301791 0.499182 -0.454992
v -0.300331 0.499182 -0.454992
v -0.300331 0.413348 -0.454992
v 0.301791 0.413348 -0.454992
v 0.301791 0.413348 -0.377000
v -0.300331 0.413348 -0.377000
v 0.455048 0.344321 -0.415996
v 0.455048 -0.345956 -0.415996
v 0.455048 -0.345956 -0.454992
v 0.455048 0.344321 -0.454992
v 0.455048 0.344321 -0.377001
v 0.455048 -0.345956 -0.377000
v 0.416052 -0.345956 -0.454992
v 0.416052 0.344321 -0.454992
v 0.416052 -0.345956 -0.377000
v 0.416052 0.344321 -0.377001
v -0.300331 -0.457901 -0.377000
v 0.301790 -0.457901 -0.377000
v 0.301790 -0.500817 -0.415996
v -0.300331 -0.500817 -0.415997
v -0.300331 -0.457901 -0.454992
v -0.300331 -0.414984 -0.377000
v 0.301790 -0.414984 -0.454992
v -0.300331 -0.414984 -0.454992
v -0.300331 -0.500817 -0.377000
v -0.414592 0.330515 -0.377000
v -0.414592 -0.332150 -0.377000
v -0.414592 0.330515 -0.454992
v -0.414592 -0.332150 -0.454992
v 0.377056 -0.345956 -0.415996
v 0.377056 0.344321 -0.415996
v 0.377056 0.344321 -0.454992
v 0.377056 -0.345956 -0.454992
v -0.375596 -0.332150 -0.415997
v -0.375596 0.330515 -0.415997
v -0.375596 0.330515 -0.377000
v -0.375596 -0.332150 -0.377000
v -0.453588 0.330515 -0.454992
v -0.453588 -0.332150 -0.454992
v -0.453588 -0.332150 -0.377000
v -0.453588 0.330515 -0.377000
v -0.375596 -0.332150 -0.454992
v -0.375596 0.330515 -0.454992
v 0.377056 0.344321 -0.377001
v 0.377056 -0.345956 -0.377000
v -0.453588 -0.500817 -0.377000
v -0.453588 -0.414984 -0.377000
v -0.453588 -0.500817 -0.454992
v -0.375596 -0.414984 -0.377000
v -0.375596 -0.500817 -0.454992
v -0.375596 -0.414984 -0.454992
v -0.453588 -0.457901 -0.377000
v -0.453588 -0.457901 -0.454992
v -0.414592 -0.500817 -0.454992
v -0.375596 -0.457901 -0.454992
v -0.375596 -0.500817 -0.415997
v -0.375596 -0.457901 -0.377000
v -0.414592 -0.500817 -0.377000
v -0.453588 -0.414984 0.453644
v 0.377056 -0.500817 -0.377000
v -0.414592 -0.457901 -0.454992
v 0.377056 -0.457901 -0.377000
v 0.377056 -0.414984 -0.377000
v 0.455048 -0.414984 -0.377000
v 0.455048 -0.500817 -0.454992
v 0.455048 -0.457901 -0.377000
v -0.453588 -0.500817 0.453644
v 0.416052 -0.457901 -0.454992
v -0.453588 -0.457900 0.375652
v 0.455048 -0.457900 0.375652
v 0.455048 -0.500817 0.375652
v 0.416052 -0.500817 0.375652
v 0.416052 -0.414984 0.375652
v 0.455048 -0.414984 0.375652
v -0.453588 -0.500817 0.375652
v -0.453588 -0.414984 0.375652
v -0.375596 -0.500817 0.453644
v -0.375596 -0.414984 0.453644
v -0.375596 -0.500817 0.375652
v -0.375596 -0.414984 0.375652
v -0.453588 -0.500817 0.414647
v -0.453588 -0.457900 0.453644
v -0.453588 -0.414984 0.414647
v -0.414592 -0.500817 0.375652
v -0.414592 -0.414984 0.375652
v -0.375596 -0.457900 0.375652
v -0.375596 -0.500817 0.414647
v -0.375596 -0.414984 0.414647
v -0.375596 -0.457900 0.453644
v -0.414592 -0.500817 0.453644
v -0.414592 -0.414984 0.453644
v -0.414592 -0.500817 0.414647
v 0.377056 -0.500817 0.453644
v -0.453588 -0.457900 0.414647
v 0.377056 -0.457900 0.375652
v 0.377056 -0.500817 0.414648
v 0.377056 -0.414984 0.414648
v 0.377056 -0.457900 0.453644
v 0.377056 -0.414984 0.453644
v 0.377056 -0.500817 0.375652
v 0.377056 -0.414984 0.375652
v 0.455048 -0.500817 0.453644
v 0.455048 -0.414984 0.453644
v 0.455048 -0.500817 0.414648
v 0.455048 -0.414984 0.414648
v 0.416052 -0.500817 0.453644
v 0.416052 -0.500817 0.414648
v 0.416052 -0.457900 0.453644
v 0.455048 -0.457900 0.414648
v -0.414592 -0.457900 0.453644
v -0.300331 -0.414984 -0.415997
v 0.301790 -0.414984 -0.415996
v 0.301790 -0.457901 -0.454992
v -0.453588 -0.457901 0.300386
v -0.453588 -0.457901 -0.301735
v 0.301790 -0.500817 -0.454992
v -0.300331 -0.500817 -0.454992
v 0.301790 -0.500817 -0.377000
v 0.301790 -0.414984 -0.377000
v 0.455048 -0.457901 -0.314280
v 0.455048 -0.457901 0.312931
v 0.455048 -0.500818 0.312931
v 0.455048 -0.500818 -0.314280
v 0.455048 -0.414984 -0.314280
v 0.455048 -0.414984 0.312931
v 0.416052 -0.500818 0.312931
v 0.416052 -0.500818 -0.314280
v 0.416052 -0.414984 0.312931
v 0.416052 -0.414984 -0.314280
v -0.300331 -0.414984 0.414647
v 0.301791 -0.414984 0.414648
v -0.300331 -0.457900 0.375652
v 0.301791 -0.457900 0.375652
v 0.301791 -0.457900 0.453644
v -0.300331 -0.457900 0.453644
v 0.301791 -0.500817 0.414648
v -0.300331 -0.500817 0.414647
v 0.301791 -0.414984 0.375652
v -0.300331 -0.414984 0.375652
v 0.301791 -0.500817 0.375652
v -0.300331 -0.500817 0.375652
v -0.300331 -0.500817 0.453644
v 0.301791 -0.500817 0.453644
v 0.301791 -0.414984 0.453644
v -0.300331 -0.414984 0.453644
v -0.414592 -0.414984 -0.301735
v -0.414592 -0.414984 0.300386
v -0.414592 -0.500818 -0.301735
v -0.414592 -0.500818 0.300386
v 0.377056 -0.457901 0.312931
v 0.377056 -0.457901 -0.314280
v 0.377056 -0.500818 -0.314280
v 0.377056 -0.500818 0.312931
v -0.375596 -0.457901 0.300386
v -0.375596 -0.457901 -0.301735
v -0.375596 -0.414984 -0.301735
v -0.375596 -0.414984 0.300386
v -0.453588 -0.500818 -0.301735
v -0.453588 -0.500818 0.300386
v -0.453588 -0.414984 0.300386
v -0.453588 -0.414984 -0.301735
v -0.375596 -0.500818 0.300386
v -0.375596 -0.500818 -0.301735
v 0.377056 -0.414984 -0.314280
v 0.377056 -0.414984 0.312931
v 0.455048 0.499182 -0.415996
v 0.455048 0.413348 -0.415996
v 0.416052 0.499182 -0.415996
v -0.375596 0.499182 -0.415997
v -0.453588 0.499182 -0.415997
v 0.455048 0.456265 0.375652
v -0.453588 0.456265 0.375652
v -0.453588 0.499182 0.375652
v -0.414592 0.499182 0.375652
v -0.414592 0.413349 0.375652
v 0.455048 0.499182 0.375652
v 0.377056 0.413348 0.453644
v 0.455048 0.456265 0.453643
v 0.416052 0.499182 0.375652
v 0.416052 0.413348 0.375652
v 0.377056 0.456265 0.375652
v -0.375596 0.499182 0.453644
v 0.455048 0.456265 0.414648
v -0.375596 0.456265 0.375652
v -0.375596 0.499182 0.414647
v -0.375596 0.456265 0.453644
v -0.375596 0.499182 0.375652
v -0.453588 0.413349 0.453644
v -0.453588 0.499182 0.414647
v -0.453588 0.456265 0.453644
v -0.414592 0.499182 0.453644
v -0.414592 0.413349 0.453644
v -0.414592 0.456265 0.453644
v -0.453588 0.456265 0.414647
v 0.416052 0.456265 0.453644
v -0.300331 0.499182 -0.415997
v 0.301791 0.499182 -0.415996
v 0.455048 0.456265 0.300386
v 0.455048 0.456265 -0.301735
v 0.301791 0.499182 -0.377000
v -0.453588 0.456265 -0.314279
v -0.453588 0.456265 0.312930
v -0.453588 0.499182 0.312930
v -0.453588 0.499182 -0.314279
v -0.453588 0.413349 -0.314279
v -0.453588 0.413349 0.312930
v -0.414592 0.499182 0.312930
v -0.414592 0.499182 -0.314279
v -0.414592 0.413349 0.312930
v -0.414592 0.413349 -0.314279
v 0.301791 0.413348 0.414648
v -0.300330 0.413349 0.414647
v -0.300330 0.456265 0.453644
v 0.301791 0.456265 0.453644
v 0.301791 0.499182 0.414648
v 0.301791 0.413348 0.375652
v -0.300330 0.499182 0.375652
v 0.301791 0.499182 0.375652
v 0.301791 0.413348 0.453644
v 0.416052 0.413348 -0.301735
v 0.416052 0.413348 0.300387
v 0.416052 0.499182 -0.301735
v 0.416052 0.499182 0.300387
v -0.375596 0.456265 0.312930
v -0.375596 0.456265 -0.314279
v -0.375596 0.499182 -0.314279
v -0.375596 0.499182 0.312930
v 0.377056 0.456265 0.300386
v 0.377056 0.456265 -0.301735
v 0.377056 0.413348 -0.301735
v 0.377056 0.413348 0.300387
v 0.455048 0.499182 -0.301735
v 0.455048 0.499182 0.300387
v 0.455048 0.413348 0.300386
v 0.455048 0.413348 -0.301735
v 0.377056 0.499182 0.300386
v 0.377056 0.499182 -0.301735
v -0.375596 0.413349 -0.314279
v -0.375596 0.413349 0.312930
v 0.455048 0.413348 0.453643
v 0.455048 0.413348 0.375652
v 0.455048 0.499182 0.453643
v 0.377056 0.413348 0.375652
v 0.377056 0.499182 0.453644
v 0.377056 0.499182 0.375652
v 0.455048 0.413348 0.414648
v 0.455048 0.499182 0.414648
v 0.416052 0.499182 0.453644
v 0.377056 0.499182 0.414648
v 0.377056 0.456265 0.453644
v 0.377056 0.413348 0.414648
v 0.416052 0.413348 0.453644
v -0.375596 0.413349 0.453644
v 0.416052 0.499182 0.414648
v -0.375596 0.413349 0.414647
v -0.375596 0.413349 0.375652
v -0.453588 0.413349 0.375652
v -0.453588 0.499182 0.453644
v -0.453588 0.413349 0.414647
v -0.414592 0.499182 0.414647
v 0.455048 -0.457900 0.453644
v 0.416052 -0.414984 0.453644
v 0.301791 0.456265 0.375652
v -0.300330 0.456265 0.375652
v -0.300330 0.499182 0.414647
v 0.455048 -0.332150 0.414648
v 0.455048 0.330515 0.414648
v -0.300330 0.499182 0.453644
v 0.301791 0.499182 0.453644
v -0.300330 0.413349 0.453644
v -0.300330 0.413349 0.375652
v -0.453588 0.344321 0.414648
v -0.453588 -0.345955 0.414647
v -0.453588 -0.345955 0.453644
v -0.453588 0.344321 0.453644
v -0.453588 0.344321 0.375652
v -0.453588 -0.345955 0.375652
v -0.414592 -0.345955 0.453644
v -0.414592 0.344321 0.453644
v -0.414592 -0.345955 0.375652
v -0.414592 0.344321 0.375652
v 0.416052 0.330515 0.375652
v 0.416052 -0.332150 0.375652
v 0.416052 0.330515 0.453644
v 0.416052 -0.332150 0.453644
v -0.375596 -0.345955 0.414647
v -0.375596 0.344321 0.414648
v -0.375596 0.344321 0.453644
v -0.375596 -0.345955 0.453644
v 0.377056 -0.332150 0.414648
v 0.377056 0.330515 0.414648
v 0.377056 0.330515 0.375652
v 0.377056 -0.332150 0.375652
v 0.455048 0.330515 0.453644
v 0.455048 -0.332150 0.453644
v 0.455048 -0.332150 0.375652
v 0.455048 0.330515 0.375652
v 0.377056 -0.332150 0.453644
v 0.377056 0.330515 0.453644
v -0.375596 0.344321 0.375652
v -0.375596 -0.345955 0.375652
v 0.416052 0.413348 -0.377001
v -0.414592 -0.414984 -0.377000
vn -0.2077 0.0919 0.9739
vn -0.0000 -0.4023 0.9155
vn 0.2077 0.0919 0.9739
vn 0.5774 0.5773 0.5774
vn -0.5773 0.5773 0.5774
vn -0.5773 -0.5773 0.5774
vn 0.5774 -0.5773 0.5774
vn -0.0721 -0.1866 0.9798
vn 0.4498 -0.0000 0.8931
vn -0.4498 -0.0000 0.8931
vn 0.0721 -0.1866 0.9798
vn 0.0721 0.1866 0.9798
vn -0.2077 -0.0919 0.9739
vn -0.0000 0.4023 0.9155
vn 0.2077 -0.0919 0.9739
vn -0.0000 -0.4023 -0.9155
vn 0.2077 0.0919 -0.9739
vn 0.5773 0.5773 -0.5774
vn -0.5774 0.5773 -0.5774
vn -0.5774 -0.5773 -0.5774
vn 0.5773 -0.5773 -0.5774
vn -0.0721 0.1866 -0.9798
vn -0.0721 -0.1866 -0.9798
vn 0.4498 -0.0000 -0.8931
vn -0.4498 -0.0000 -0.8931
vn 0.0721 -0.1866 -0.9798
vn 0.0721 0.1866 -0.9798
vn -0.2077 -0.0919 -0.9739
vn -0.0000 0.4023 -0.9155
vn 0.2077 -0.0919 -0.9739
vn 0.7071 -0.0000 0.7071
vn -0.0721 0.1866 0.9798
vn 0.7071 -0.0000 -0.7071
vn -0.0000 -0.7071 0.7071
vn -0.2077 0.0919 -0.9739
vn -0.0000 -0.7071 -0.7071
vn -0.7071 -0.0000 0.7071
vn -0.7071 -0.0000 -0.7071
vn -0.0000 0.7071 0.7071
vn -0.0000 0.7071 -0.7071
vn 0.5773 -0.5774 -0.5774
vn 0.5773 0.5773 0.5774
vn 0.5773 -0.5773 0.5774
vn -0.9739 0.0919 -0.2077
vn -0.9155 -0.4023 -0.0000
vn -0.9739 0.0919 0.2077
vn -0.5774 0.5773 0.5773
vn -0.5774 -0.5773 -0.5773
vn -0.5774 -0.5773 0.5773
vn -0.9798 -0.1866 -0.0721
vn -0.8931 -0.0000 0.4498
vn -0.8931 -0.0000 -0.4498
vn -0.9798 -0.1866 0.0721
vn -0.9798 0.1866 0.0721
vn -0.9739 -0.0919 -0.2077
vn -0.9155 0.4023 -0.0000
vn -0.9739 -0.0919 0.2077
vn 0.9155 -0.4023 -0.0000
vn 0.9739 0.0919 0.2077
vn 0.5774 0.5773 0.5773
vn 0.5774 0.5773 -0.5774
vn 0.5774 -0.5773 -0.5774
vn 0.5774 -0.5774 0.5774
vn 0.9798 0.1866 -0.0721
vn 0.9798 -0.1866 -0.0721
vn 0.8931 -0.0000 0.4498
vn 0.8931 -0.0000 -0.4498
vn 0.9798 -0.1866 0.0721
vn 0.9798 0.1866 0.0721
vn 0.9739 -0.0919 -0.2077
vn 0.9155 0.4023 -0.0000
vn 0.9739 -0.0919 0.2077
vn -0.9798 0.1866 -0.0721
vn -0.7071 -0.7071 -0.0000
vn 0.9739 0.0919 -0.2077
vn 0.7071 -0.7071 -0.0000
vn -0.7071 0.7071 -0.0000
vn 0.7071 0.7071 -0.0000
vn 0.5774 -0.5773 0.5773
vn -0.5774 0.5773 -0.5773
vn -0.5774 0.5774 0.5773
vn -0.5774 -0.5773 0.5774
vn 0.9045 0.3015 -0.3015
vn -0.3015 0.3015 0.9045
vn -0.5773 0.5774 -0.5774
vn -0.3015 -0.9045 -0.3015
vn 1.0000 -0.0000 -0.0000
vn -0.0000 -1.0000 -0.0000
vn -0.0000 -0.0000 1.0000
vn 0.3015 0.3015 0.9045
vn 0.5773 0.5774 -0.5774
vn 0.3015 -0.9045 -0.3015
vn -0.9045 0.3015 -0.3015
vn -0.5774 -0.5774 0.5774
vn -1.0000 -0.0000 -0.0000
vn -0.3015 0.9045 -0.3015
vn -0.0000 1.0000 -0.0000
vn 0.3015 -0.3015 0.9045
vn -0.0000 -0.0000 -1.0000
vn 0.9045 -0.3015 -0.3015
vn 0.5774 0.5774 0.5774
vn -0.5773 -0.5774 -0.5774
vn -0.3015 -0.3015 0.9045
vn 0.3015 0.9045 -0.3015
vn -0.9045 -0.3015 -0.3015
vn -0.5774 0.5774 0.5774
vn 0.5774 0.5774 -0.5774
vn -0.9045 -0.3015 0.3015
vn 0.9045 -0.3015 0.3015
vn -0.3015 -0.3015 -0.9045
vn -0.3015 0.9045 0.3015
vn -0.5773 -0.5774 0.5774
vn 0.3015 -0.3015 -0.9045
vn 0.3015 0.9045 0.3015
vn 0.5773 -0.5774 0.5774
vn 0.3015 0.3015 -0.9045
vn -0.3015 -0.9045 0.3015
vn -0.9045 0.3015 0.3015
vn 0.5774 0.5774 0.5773
vn 0.3015 -0.9045 0.3015
vn -0.3015 0.3015 -0.9045
vn 0.9045 0.3015 0.3015
vn 0.5774 -0.5774 -0.5774
vt 0.947025 0.395581
vt 0.937471 0.395581
vt 0.937471 0.231436
vt 0.947025 0.231436
vt 0.345776 0.842120
vt 0.355330 0.842120
vt 0.355330 0.924195
vt 0.345776 0.924195
vt 0.802506 0.808355
vt 0.802506 0.972500
vt 0.792951 0.972500
vt 0.792951 0.808355
vt 0.775820 0.808355
vt 0.775820 0.890426
vt 0.766266 0.890426
vt 0.766266 0.808355
vt 0.645166 0.972502
vt 0.635611 0.972502
vt 0.635611 0.808355
vt 0.645166 0.808355
vt 0.377106 0.842120
vt 0.377106 0.924193
vt 0.367552 0.924193
vt 0.367552 0.842120
vt 0.775820 0.972500
vt 0.766266 0.972500
vt 0.389327 0.924191
vt 0.389327 0.842120
vt 0.398882 0.842120
vt 0.398881 0.924191
vt 0.311779 0.842120
vt 0.311779 0.924195
vt 0.302225 0.924195
vt 0.302225 0.842120
vt 0.940339 0.620887
vt 0.930785 0.620887
vt 0.930785 0.604575
vt 0.940339 0.604575
vt 0.623390 0.808355
vt 0.623390 0.972502
vt 0.613836 0.972502
vt 0.613836 0.808355
vt 0.961688 0.829899
vt 0.952134 0.829899
vt 0.952134 0.813586
vt 0.961688 0.813586
vt 0.290003 0.842120
vt 0.290003 0.924195
vt 0.280449 0.924195
vt 0.280449 0.842120
vt 0.962088 0.022423
vt 0.952534 0.022423
vt 0.952534 0.006111
vt 0.962088 0.006111
vt 0.324000 0.842120
vt 0.333555 0.842120
vt 0.333555 0.924195
vt 0.324000 0.924195
vt 0.006111 0.620887
vt 0.022423 0.611331
vt 0.022423 0.620887
vt 0.015667 0.604573
vt 0.006111 0.440428
vt 0.006111 0.424115
vt 0.015667 0.440428
vt 0.022423 0.433671
vt 0.022423 0.424115
vt 0.186568 0.424115
vt 0.186569 0.433671
vt 0.202883 0.424115
vt 0.193327 0.440427
vt 0.202883 0.440424
vt 0.193327 0.604575
vt 0.186570 0.611331
vt 0.104495 0.529257
vt 0.111252 0.522500
vt 0.097738 0.522500
vt 0.104495 0.515743
vt 0.604575 0.224678
vt 0.611331 0.231435
vt 0.529260 0.313506
vt 0.522503 0.306749
vt 0.522503 0.320263
vt 0.515746 0.313506
vt 0.611331 0.395580
vt 0.604575 0.402338
vt 0.620887 0.411894
vt 0.433671 0.395581
vt 0.440428 0.402338
vt 0.424115 0.411894
vt 0.604575 0.411894
vt 0.424115 0.215122
vt 0.433671 0.231434
vt 0.424115 0.231430
vt 0.440429 0.224678
vt 0.620887 0.215122
vt 0.620887 0.231435
vt 0.440430 0.215122
vt 0.604575 0.215122
vt 0.620887 0.395580
vt 0.006111 0.604573
vt 0.947025 0.411894
vt 0.937471 0.411894
vt 0.962088 0.202883
vt 0.952534 0.202883
vt 0.952534 0.186568
vt 0.962088 0.186568
vt 0.754045 0.808355
vt 0.754045 0.972500
vt 0.744490 0.972500
vt 0.744490 0.808355
vt 0.961688 0.649435
vt 0.952134 0.649435
vt 0.952134 0.633126
vt 0.961688 0.633126
vt 0.202883 0.604575
vt 0.424115 0.395581
vt 0.940339 0.440428
vt 0.930785 0.440428
vt 0.930785 0.424115
vt 0.940339 0.424115
vt 0.440428 0.411894
vt 0.186570 0.620887
vt 0.937471 0.215122
vt 0.947025 0.215122
vt 0.202883 0.620887
vt 0.915695 0.231435
vt 0.925250 0.231435
vt 0.925250 0.395580
vt 0.915695 0.395580
vt 0.246452 0.924195
vt 0.236897 0.924195
vt 0.236897 0.842120
vt 0.246452 0.842120
vt 0.722714 0.972500
vt 0.722714 0.808355
vt 0.732269 0.808355
vt 0.732269 0.972500
vt 0.657387 0.972500
vt 0.657387 0.890429
vt 0.666941 0.890429
vt 0.666941 0.972500
vt 0.592060 0.808355
vt 0.601614 0.808355
vt 0.601614 0.972502
vt 0.592060 0.972502
vt 0.710493 0.808355
vt 0.710493 0.890428
vt 0.700939 0.890428
vt 0.700939 0.808355
vt 0.657387 0.808355
vt 0.666941 0.808355
vt 0.710493 0.972500
vt 0.700939 0.972500
vt 0.192585 0.842102
vt 0.192585 0.924177
vt 0.183031 0.924177
vt 0.183031 0.842102
vt 0.930758 0.006111
vt 0.940313 0.006111
vt 0.940313 0.022423
vt 0.930758 0.022423
vt 0.564070 0.972502
vt 0.564070 0.808355
vt 0.573624 0.808355
vt 0.573624 0.972502
vt 0.930358 0.633126
vt 0.939913 0.633126
vt 0.939913 0.649439
vt 0.930358 0.649439
vt 0.224676 0.842120
vt 0.224676 0.924195
vt 0.215122 0.924195
vt 0.215122 0.842120
vt 0.908982 0.186570
vt 0.918537 0.186570
vt 0.918537 0.202883
vt 0.908982 0.202883
vt 0.268228 0.924195
vt 0.258673 0.924195
vt 0.258673 0.842120
vt 0.268228 0.842120
vt 0.202883 0.411894
vt 0.193327 0.395582
vt 0.202883 0.395582
vt 0.186569 0.402338
vt 0.022424 0.411894
vt 0.006111 0.411894
vt 0.022424 0.402338
vt 0.015667 0.395581
vt 0.006111 0.395581
vt 0.006111 0.231436
vt 0.015667 0.231436
vt 0.006111 0.215122
vt 0.022423 0.224678
vt 0.022419 0.215122
vt 0.186570 0.224678
vt 0.193327 0.231435
vt 0.111252 0.313510
vt 0.104495 0.306753
vt 0.104495 0.320266
vt 0.097738 0.313510
vt 0.224678 0.231435
vt 0.231435 0.224678
vt 0.313506 0.306749
vt 0.306749 0.313506
vt 0.320263 0.313506
vt 0.313506 0.320263
vt 0.395580 0.224678
vt 0.402338 0.231434
vt 0.411894 0.215122
vt 0.395581 0.402338
vt 0.402338 0.395581
vt 0.411894 0.411894
vt 0.411894 0.231434
vt 0.215122 0.411894
vt 0.231434 0.402338
vt 0.231430 0.411894
vt 0.224678 0.395580
vt 0.215122 0.215122
vt 0.231435 0.215122
vt 0.215122 0.395579
vt 0.215122 0.231435
vt 0.395580 0.215122
vt 0.186569 0.411894
vt 0.915695 0.215122
vt 0.925250 0.215122
vt 0.908982 0.006111
vt 0.918537 0.006111
vt 0.918537 0.022425
vt 0.908982 0.022425
vt 0.679163 0.972500
vt 0.679163 0.808355
vt 0.688717 0.808355
vt 0.688717 0.972500
vt 0.930358 0.813590
vt 0.939913 0.813590
vt 0.939913 0.829899
vt 0.930358 0.829899
vt 0.186570 0.215122
vt 0.395581 0.411894
vt 0.930758 0.186570
vt 0.940313 0.186570
vt 0.940313 0.202883
vt 0.930758 0.202883
vt 0.411894 0.395581
vt 0.202883 0.231435
vt 0.925250 0.411894
vt 0.915695 0.411894
vt 0.202883 0.215122
vt 0.893580 0.231435
vt 0.903474 0.231435
vt 0.903474 0.395580
vt 0.893580 0.395580
vt 0.006111 0.842102
vt 0.016004 0.842102
vt 0.016004 0.924177
vt 0.006111 0.924177
vt 0.485504 0.808355
vt 0.485504 0.972500
vt 0.475610 0.972500
vt 0.475610 0.808355
vt 0.104464 0.842102
vt 0.104464 0.924174
vt 0.094571 0.924174
vt 0.094571 0.842102
vt 0.821485 0.808355
vt 0.831378 0.808355
vt 0.831378 0.966873
vt 0.821485 0.966873
vt 0.497725 0.972500
vt 0.497725 0.890426
vt 0.507619 0.890426
vt 0.507619 0.972500
vt 0.116686 0.924174
vt 0.116686 0.842102
vt 0.126579 0.842102
vt 0.126579 0.924174
vt 0.497725 0.808355
vt 0.507619 0.808355
vt 0.859912 0.884838
vt 0.859912 0.966913
vt 0.850018 0.966913
vt 0.850018 0.884838
vt 0.969140 0.405146
vt 0.959247 0.405146
vt 0.959247 0.389394
vt 0.969140 0.389394
vt 0.417385 0.972502
vt 0.417385 0.808355
vt 0.427279 0.808355
vt 0.427279 0.972502
vt 0.896761 0.202883
vt 0.886867 0.202883
vt 0.886867 0.186570
vt 0.896761 0.186570
vt 0.859912 0.802765
vt 0.850018 0.802765
vt 0.952560 0.598387
vt 0.962454 0.598387
vt 0.962454 0.614140
vt 0.952560 0.614140
vt 0.060234 0.924177
vt 0.050341 0.924177
vt 0.050341 0.842102
vt 0.060234 0.842102
vt 0.816421 0.006111
vt 0.800668 0.015667
vt 0.800668 0.006111
vt 0.807192 0.022425
vt 0.816421 0.186570
vt 0.816421 0.202883
vt 0.807192 0.186570
vt 0.800667 0.193327
vt 0.800667 0.202883
vt 0.642151 0.202883
vt 0.642150 0.193327
vt 0.626396 0.202883
vt 0.635624 0.186571
vt 0.626396 0.186574
vt 0.635624 0.022424
vt 0.642150 0.015667
vt 0.721410 0.097741
vt 0.714885 0.104498
vt 0.727935 0.104498
vt 0.721410 0.111255
vt 0.807380 0.224678
vt 0.813905 0.231435
vt 0.734648 0.313506
vt 0.728123 0.306749
vt 0.728123 0.320263
vt 0.721598 0.313506
vt 0.813905 0.395580
vt 0.807381 0.402338
vt 0.823134 0.411894
vt 0.642337 0.395581
vt 0.648863 0.402338
vt 0.633109 0.411894
vt 0.807381 0.411894
vt 0.633109 0.215122
vt 0.642337 0.231434
vt 0.633109 0.231430
vt 0.648863 0.224678
vt 0.823134 0.215122
vt 0.823134 0.231435
vt 0.648864 0.215122
vt 0.807380 0.215122
vt 0.823134 0.395580
vt 0.816421 0.022425
vt 0.893580 0.215122
vt 0.903474 0.215122
vt 0.952560 0.424115
vt 0.962454 0.424115
vt 0.962454 0.439870
vt 0.952560 0.439870
vt 0.991255 0.215122
vt 0.991255 0.373639
vt 0.981362 0.373639
vt 0.981362 0.215122
vt 0.896761 0.022419
vt 0.886867 0.022419
vt 0.886867 0.006111
vt 0.896761 0.006111
vt 0.626396 0.022424
vt 0.633109 0.395581
vt 0.969140 0.230875
vt 0.959247 0.230875
vt 0.959247 0.215122
vt 0.969140 0.215122
vt 0.648863 0.411894
vt 0.642150 0.006111
vt 0.903474 0.411894
vt 0.893580 0.411894
vt 0.626396 0.006111
vt 0.908243 0.649440
vt 0.918137 0.649440
vt 0.918137 0.813584
vt 0.908243 0.813584
vt 0.072456 0.842102
vt 0.082349 0.842102
vt 0.082349 0.924177
vt 0.072456 0.924177
vt 0.529734 0.808355
vt 0.529734 0.972500
vt 0.519840 0.972500
vt 0.519840 0.808355
vt 0.148694 0.842102
vt 0.148694 0.924174
vt 0.138801 0.924174
vt 0.138801 0.842102
vt 0.984569 0.582634
vt 0.974675 0.582634
vt 0.974675 0.424115
vt 0.984569 0.424115
vt 0.541955 0.972500
vt 0.541955 0.890426
vt 0.551849 0.890426
vt 0.551849 0.972500
vt 0.160916 0.924174
vt 0.160916 0.842102
vt 0.170809 0.842102
vt 0.170809 0.924174
vt 0.541955 0.808355
vt 0.551849 0.808355
vt 0.882027 0.884838
vt 0.882027 0.966913
vt 0.872133 0.966913
vt 0.872133 0.884838
vt 0.974310 0.006111
vt 0.984203 0.006111
vt 0.984203 0.021863
vt 0.974310 0.021863
vt 0.446497 0.972502
vt 0.446497 0.808355
vt 0.456391 0.808355
vt 0.456391 0.972502
vt 0.918563 0.620887
vt 0.908670 0.620887
vt 0.908670 0.604575
vt 0.918563 0.604575
vt 0.882027 0.802765
vt 0.872133 0.802765
vt 0.983803 0.648880
vt 0.973910 0.648880
vt 0.973910 0.633126
vt 0.983803 0.633126
vt 0.038119 0.924177
vt 0.028226 0.924177
vt 0.028226 0.842102
vt 0.038119 0.842102
vt 0.215122 0.829899
vt 0.230874 0.820343
vt 0.230874 0.829899
vt 0.224350 0.813585
vt 0.215122 0.649440
vt 0.215122 0.633126
vt 0.224350 0.649440
vt 0.230875 0.642682
vt 0.230875 0.633126
vt 0.389391 0.633126
vt 0.389392 0.642682
vt 0.405146 0.633126
vt 0.395918 0.649438
vt 0.405146 0.649435
vt 0.395918 0.813586
vt 0.389393 0.820343
vt 0.310132 0.738268
vt 0.316658 0.731511
vt 0.303607 0.731511
vt 0.310132 0.724754
vt 0.021864 0.820325
vt 0.015339 0.813568
vt 0.094596 0.731496
vt 0.101121 0.738253
vt 0.101121 0.724740
vt 0.107647 0.731496
vt 0.015339 0.649423
vt 0.021863 0.642665
vt 0.006111 0.633109
vt 0.186907 0.649422
vt 0.180382 0.642665
vt 0.196135 0.633109
vt 0.021863 0.633109
vt 0.196135 0.829881
vt 0.186907 0.813569
vt 0.196135 0.813573
vt 0.180381 0.820325
vt 0.006111 0.829881
vt 0.006111 0.813568
vt 0.180380 0.829881
vt 0.021864 0.829881
vt 0.006111 0.649423
vt 0.215122 0.813585
vt 0.908243 0.633126
vt 0.918137 0.633126
vt 0.983803 0.823151
vt 0.973910 0.823151
vt 0.973910 0.807396
vt 0.983803 0.807396
vt 0.973910 0.993889
vt 0.973910 0.835372
vt 0.983803 0.835372
vt 0.983803 0.993889
vt 0.918563 0.440424
vt 0.908670 0.440424
vt 0.908670 0.424115
vt 0.918563 0.424115
vt 0.405146 0.813586
vt 0.196135 0.649422
vt 0.974310 0.180382
vt 0.984203 0.180382
vt 0.984203 0.196135
vt 0.974310 0.196135
vt 0.180382 0.633109
vt 0.389393 0.829899
vt 0.918137 0.829899
vt 0.908243 0.829899
vt 0.405146 0.829899
vt 0.223278 0.432561
vt 0.223278 0.424115
vt 0.231434 0.424115
vt 0.231434 0.432561
vt 0.627804 0.612459
vt 0.627804 0.604014
vt 0.635960 0.604014
vt 0.635960 0.612459
vt 0.627804 0.457307
vt 0.627804 0.441006
vt 0.635960 0.441006
vt 0.635960 0.457307
vt 0.707352 0.649427
vt 0.707352 0.633126
vt 0.715508 0.633126
vt 0.715508 0.649427
vt 0.014556 0.194455
vt 0.014556 0.186009
vt 0.023002 0.186009
vt 0.023002 0.194455
vt 0.006111 0.194455
vt 0.006111 0.186009
vt 0.006111 0.202900
vt 0.014556 0.202900
vt 0.023002 0.202900
vt 0.417385 0.454590
vt 0.417385 0.441006
vt 0.425541 0.441006
vt 0.425541 0.454590
vt 0.231434 0.587713
vt 0.231434 0.604014
vt 0.223278 0.604014
vt 0.223278 0.587713
vt 0.772574 0.779833
vt 0.772574 0.796134
vt 0.764418 0.796134
vt 0.764418 0.779833
vt 0.492501 0.779833
vt 0.492501 0.796134
vt 0.484055 0.796134
vt 0.484055 0.779833
vt 0.619648 0.457307
vt 0.619648 0.441006
vt 0.619648 0.612459
vt 0.619648 0.604014
vt 0.619648 0.620905
vt 0.627804 0.620905
vt 0.635960 0.620905
vt 0.215122 0.432561
vt 0.215122 0.424115
vt 0.215122 0.441007
vt 0.223278 0.441006
vt 0.231434 0.441006
vt 0.169708 0.194455
vt 0.186009 0.194455
vt 0.186009 0.202900
vt 0.169708 0.202900
vt 0.780730 0.779833
vt 0.780730 0.796134
vt 0.169708 0.186009
vt 0.186009 0.186009
vt 0.475610 0.796134
vt 0.475610 0.779833
vt 0.627804 0.432561
vt 0.627804 0.424115
vt 0.635960 0.424115
vt 0.635960 0.432561
vt 0.006111 0.039303
vt 0.006111 0.023002
vt 0.014556 0.023002
vt 0.014556 0.039303
vt 0.194455 0.194455
vt 0.194455 0.186009
vt 0.202900 0.186009
vt 0.202900 0.194455
vt 0.194455 0.202900
vt 0.202900 0.202900
vt 0.744041 0.782550
vt 0.744041 0.796134
vt 0.735885 0.796134
vt 0.735885 0.782550
vt 0.723664 0.633126
vt 0.723664 0.649427
vt 0.215122 0.604014
vt 0.215122 0.587713
vt 0.619648 0.432561
vt 0.619648 0.424115
vt 0.433697 0.441006
vt 0.433697 0.454590
vt 0.194455 0.036586
vt 0.194455 0.023002
vt 0.202900 0.023002
vt 0.202900 0.036586
vt 0.023002 0.023002
vt 0.023002 0.039303
vt 0.186009 0.036586
vt 0.186009 0.023002
vt 0.513168 0.646710
vt 0.513168 0.633126
vt 0.521614 0.633126
vt 0.521614 0.646710
vt 0.752197 0.782550
vt 0.752197 0.796134
vt 0.504722 0.646710
vt 0.504722 0.633126
vt 0.223278 0.612459
vt 0.231434 0.612459
vt 0.801108 0.649427
vt 0.801108 0.633126
vt 0.809264 0.633126
vt 0.809264 0.649427
vt 0.006111 0.014556
vt 0.014556 0.014556
vt 0.023002 0.014556
vt 0.432289 0.169708
vt 0.432289 0.186009
vt 0.424133 0.186009
vt 0.424133 0.169708
vt 0.434276 0.779833
vt 0.434276 0.796134
vt 0.425830 0.796134
vt 0.425830 0.779833
vt 0.792951 0.649427
vt 0.792951 0.633126
vt 0.215122 0.612459
vt 0.215122 0.620905
vt 0.223278 0.620905
vt 0.231434 0.620905
vt 0.169708 0.014556
vt 0.186009 0.014556
vt 0.169708 0.023002
vt 0.440445 0.169708
vt 0.440445 0.186009
vt 0.169708 0.006111
vt 0.186009 0.006111
vt 0.417385 0.796134
vt 0.417385 0.779833
vt 0.194455 0.014556
vt 0.194455 0.006111
vt 0.202900 0.006111
vt 0.202900 0.014556
vt 0.432289 0.202900
vt 0.424133 0.202900
vt 0.424133 0.194455
vt 0.432289 0.194455
vt 0.440445 0.202900
vt 0.440445 0.194455
vt 0.417385 0.432561
vt 0.425541 0.432561
vt 0.417385 0.424115
vt 0.425541 0.424115
vt 0.433697 0.432561
vt 0.433697 0.424115
vt 0.417385 0.620905
vt 0.417385 0.612459
vt 0.425541 0.612459
vt 0.425541 0.620905
vt 0.433697 0.612459
vt 0.433697 0.620905
vt 0.417385 0.604014
vt 0.425541 0.604014
vt 0.433697 0.604014
vt 0.432289 0.006111
vt 0.440445 0.006111
vt 0.440445 0.014556
vt 0.432289 0.014556
vt 0.440445 0.023002
vt 0.432289 0.023002
vt 0.424133 0.006111
vt 0.424133 0.014556
vt 0.424133 0.023002
vt 0.425830 0.633126
vt 0.425830 0.649427
vt 0.417385 0.649427
vt 0.417385 0.633126
vt 0.023002 0.006111
vt 0.039302 0.006111
vt 0.039302 0.014556
vt 0.440445 0.039302
vt 0.432289 0.039302
vt 0.039302 0.023002
vt 0.792951 0.796134
vt 0.792951 0.779833
vt 0.801107 0.779833
vt 0.801107 0.796134
vt 0.434276 0.633126
vt 0.434276 0.649427
vt 0.424133 0.039302
vt 0.809264 0.779833
vt 0.809264 0.796134
vt 0.504722 0.782550
vt 0.513168 0.782550
vt 0.629618 0.796134
vt 0.629618 0.779833
vt 0.638064 0.779833
vt 0.638064 0.796134
vt 0.629618 0.649427
vt 0.638064 0.649427
vt 0.752197 0.633126
vt 0.752197 0.646710
vt 0.744041 0.646710
vt 0.744041 0.633126
vt 0.521614 0.782550
vt 0.186009 0.172425
vt 0.194455 0.172425
vt 0.014556 0.169708
vt 0.023002 0.169708
vt 0.202900 0.172425
vt 0.425541 0.590430
vt 0.433697 0.590430
vt 0.223278 0.457307
vt 0.215122 0.457307
vt 0.715508 0.796134
vt 0.715508 0.779833
vt 0.723664 0.779833
vt 0.723664 0.796134
vt 0.735885 0.646710
vt 0.735885 0.633126
vt 0.006111 0.169708
vt 0.484055 0.633126
vt 0.484055 0.649427
vt 0.475610 0.649427
vt 0.475610 0.633126
vt 0.039303 0.186009
vt 0.039303 0.194455
vt 0.780730 0.633126
vt 0.780730 0.649427
vt 0.772574 0.649427
vt 0.772574 0.633126
vt 0.039303 0.202900
vt 0.619648 0.587713
vt 0.627804 0.587713
vt 0.492501 0.633126
vt 0.492501 0.649427
vt 0.764418 0.649427
vt 0.764418 0.633126
vt 0.621172 0.796134
vt 0.621172 0.779833
vt 0.621172 0.649427
vt 0.231434 0.457307
vt 0.417385 0.590430
vt 0.707352 0.796134
vt 0.707352 0.779833
vt 0.635960 0.587713
vt 0.852246 0.356798
vt 0.852246 0.372539
vt 0.843801 0.372539
vt 0.843801 0.356798
vt 0.577997 0.424115
vt 0.591115 0.424115
vt 0.591115 0.432561
vt 0.577997 0.432561
vt 0.373110 0.604014
vt 0.388851 0.604014
vt 0.388851 0.612459
vt 0.373110 0.612459
vt 0.881359 0.356798
vt 0.881359 0.372539
vt 0.872913 0.372539
vt 0.872913 0.356798
vt 0.014556 0.006111
vt 0.006111 0.006111
vt 0.582121 0.006111
vt 0.597862 0.006111
vt 0.597862 0.014556
vt 0.582121 0.014556
vt 0.837088 0.150410
vt 0.837088 0.163528
vt 0.828642 0.163528
vt 0.828642 0.150410
vt 0.835355 0.372539
vt 0.835355 0.356798
vt 0.388851 0.620905
vt 0.373110 0.620905
vt 0.591115 0.441006
vt 0.577997 0.441006
vt 0.584744 0.194455
vt 0.597862 0.194455
vt 0.597862 0.202900
vt 0.584744 0.202900
vt 0.597862 0.023002
vt 0.582121 0.023002
vt 0.584744 0.186009
vt 0.597862 0.186009
vt 0.866200 0.150410
vt 0.866200 0.163528
vt 0.857755 0.163528
vt 0.857755 0.150410
vt 0.845533 0.150410
vt 0.845533 0.163528
vt 0.864468 0.372539
vt 0.864468 0.356798
vt 0.874646 0.150410
vt 0.874646 0.163528
vt 0.397007 0.612459
vt 0.397007 0.604014
vt 0.542280 0.649427
vt 0.542280 0.633126
vt 0.550726 0.633126
vt 0.550726 0.649427
vt 0.606018 0.014556
vt 0.614175 0.014556
vt 0.614175 0.023002
vt 0.606018 0.023002
vt 0.606018 0.006111
vt 0.614175 0.006111
vt 0.248314 0.014556
vt 0.232013 0.014556
vt 0.232013 0.006111
vt 0.248314 0.006111
vt 0.821485 0.649427
vt 0.821485 0.633126
vt 0.829641 0.633126
vt 0.829641 0.649427
vt 0.533835 0.649427
vt 0.533835 0.633126
vt 0.397007 0.620905
vt 0.405164 0.620905
vt 0.405164 0.612459
vt 0.405164 0.604014
vt 0.606019 0.169708
vt 0.606019 0.186009
vt 0.597862 0.169708
vt 0.248314 0.023002
vt 0.232013 0.023002
vt 0.614175 0.169708
vt 0.614175 0.186009
vt 0.837797 0.633126
vt 0.837797 0.649427
vt 0.606019 0.194455
vt 0.614175 0.194455
vt 0.614175 0.202900
vt 0.606019 0.202900
vt 0.215122 0.014556
vt 0.215122 0.006111
vt 0.223567 0.006111
vt 0.223567 0.014556
vt 0.215122 0.023002
vt 0.223567 0.023002
vt 0.599271 0.424115
vt 0.599271 0.432561
vt 0.607427 0.424115
vt 0.607427 0.432561
vt 0.599271 0.441006
vt 0.607427 0.441006
vt 0.411911 0.014556
vt 0.411911 0.023002
vt 0.403466 0.023002
vt 0.403466 0.014556
vt 0.395020 0.023002
vt 0.395020 0.014556
vt 0.411911 0.006111
vt 0.403466 0.006111
vt 0.395020 0.006111
vt 0.829641 0.796134
vt 0.829641 0.779833
vt 0.837797 0.779833
vt 0.837797 0.796134
vt 0.614175 0.039303
vt 0.606018 0.039303
vt 0.378719 0.023002
vt 0.378719 0.014556
vt 0.597862 0.039303
vt 0.533835 0.796134
vt 0.533835 0.779833
vt 0.542280 0.779833
vt 0.542280 0.796134
vt 0.821485 0.796134
vt 0.821485 0.779833
vt 0.378719 0.006111
vt 0.550726 0.779833
vt 0.550726 0.796134
vt 0.874646 0.006111
vt 0.874646 0.019229
vt 0.866200 0.019229
vt 0.866200 0.006111
vt 0.872913 0.230863
vt 0.864468 0.230863
vt 0.845533 0.006111
vt 0.845533 0.019229
vt 0.837088 0.019229
vt 0.837088 0.006111
vt 0.857755 0.019229
vt 0.857755 0.006111
vt 0.453563 0.186009
vt 0.453563 0.194455
vt 0.456186 0.014556
vt 0.456186 0.023002
vt 0.453563 0.202900
vt 0.446815 0.432561
vt 0.446815 0.441006
vt 0.247175 0.612459
vt 0.247175 0.620905
vt 0.843801 0.215122
vt 0.843801 0.230863
vt 0.835355 0.230863
vt 0.835355 0.215122
vt 0.828642 0.019229
vt 0.828642 0.006111
vt 0.456186 0.006111
vt 0.881359 0.230863
vt 0.247175 0.604014
vt 0.446815 0.424115
vt 0.852246 0.215122
vt 0.852246 0.230863
vt 0.867336 0.565791
vt 0.867336 0.581533
vt 0.858890 0.581533
vt 0.858890 0.565791
vt 0.375733 0.424115
vt 0.388851 0.424115
vt 0.388851 0.432561
vt 0.375733 0.432561
vt 0.575373 0.604014
vt 0.591115 0.604014
vt 0.591115 0.612459
vt 0.575373 0.612459
vt 0.896448 0.565791
vt 0.896448 0.581533
vt 0.888003 0.581533
vt 0.888003 0.565791
vt 0.777636 0.424115
vt 0.793378 0.424115
vt 0.793378 0.432561
vt 0.777636 0.432561
vt 0.858464 0.777426
vt 0.858464 0.790544
vt 0.850018 0.790544
vt 0.850018 0.777426
vt 0.850444 0.581533
vt 0.850444 0.565791
vt 0.591115 0.620905
vt 0.575373 0.620905
vt 0.388851 0.441006
vt 0.375733 0.441006
vt 0.780259 0.612459
vt 0.793378 0.612459
vt 0.793378 0.620905
vt 0.780259 0.620905
vt 0.793378 0.441007
vt 0.777636 0.441007
vt 0.780259 0.604014
vt 0.793378 0.604014
vt 0.887576 0.777426
vt 0.887576 0.790544
vt 0.879131 0.790544
vt 0.879131 0.777426
vt 0.866909 0.777426
vt 0.866909 0.790544
vt 0.879557 0.581533
vt 0.879557 0.565791
vt 0.896022 0.777426
vt 0.896022 0.790544
vt 0.599271 0.612459
vt 0.599271 0.604014
vt 0.454943 0.649427
vt 0.454943 0.633126
vt 0.463389 0.633126
vt 0.463389 0.649427
vt 0.801534 0.424115
vt 0.801534 0.432561
vt 0.801534 0.441007
vt 0.378719 0.194455
vt 0.395020 0.194455
vt 0.395020 0.202900
vt 0.378719 0.202900
vt 0.821911 0.440416
vt 0.821911 0.424115
vt 0.830067 0.424115
vt 0.830067 0.440416
vt 0.446497 0.649427
vt 0.446497 0.633126
vt 0.599271 0.620905
vt 0.607427 0.620905
vt 0.607427 0.612459
vt 0.607427 0.604014
vt 0.801534 0.587713
vt 0.801534 0.604014
vt 0.793378 0.587713
vt 0.378719 0.186009
vt 0.395020 0.186009
vt 0.809690 0.587713
vt 0.809690 0.604014
vt 0.838223 0.424115
vt 0.838223 0.440416
vt 0.801534 0.612459
vt 0.809690 0.612459
vt 0.809690 0.620905
vt 0.801534 0.620905
vt 0.411911 0.194455
vt 0.411911 0.202900
vt 0.403466 0.202900
vt 0.403466 0.194455
vt 0.411911 0.186009
vt 0.403466 0.186009
vt 0.397007 0.424115
vt 0.397007 0.432561
vt 0.405164 0.424115
vt 0.405164 0.432561
vt 0.397007 0.441006
vt 0.405164 0.441006
vt 0.215122 0.194455
vt 0.215122 0.186009
vt 0.223567 0.186009
vt 0.223567 0.194455
vt 0.232013 0.186009
vt 0.232013 0.194455
vt 0.215122 0.202900
vt 0.223567 0.202900
vt 0.232013 0.202900
vt 0.830067 0.587122
vt 0.830067 0.570822
vt 0.838223 0.570822
vt 0.838223 0.587122
vt 0.809690 0.441007
vt 0.809690 0.457307
vt 0.801534 0.457307
vt 0.248314 0.186009
vt 0.248314 0.194455
vt 0.793378 0.457307
vt 0.446497 0.796134
vt 0.446497 0.779833
vt 0.454943 0.779833
vt 0.454943 0.796134
vt 0.821911 0.587122
vt 0.821911 0.570822
vt 0.248314 0.202900
vt 0.463389 0.779833
vt 0.463389 0.796134
vt 0.896022 0.633126
vt 0.896022 0.646244
vt 0.887576 0.646244
vt 0.887576 0.633126
vt 0.888003 0.439857
vt 0.879557 0.439857
vt 0.866909 0.633126
vt 0.866909 0.646244
vt 0.858464 0.646244
vt 0.858464 0.633126
vt 0.879131 0.646244
vt 0.879131 0.633126
vt 0.649078 0.604014
vt 0.649078 0.612459
vt 0.651702 0.432561
vt 0.651702 0.441006
vt 0.649078 0.620905
vt 0.244552 0.432561
vt 0.244552 0.441006
vt 0.449439 0.612459
vt 0.449439 0.620905
vt 0.858890 0.424115
vt 0.858890 0.439857
vt 0.850445 0.439857
vt 0.850444 0.424115
vt 0.850018 0.646244
vt 0.850018 0.633126
vt 0.651702 0.424115
vt 0.888003 0.424115
vt 0.896448 0.424115
vt 0.896448 0.439857
vt 0.449439 0.604014
vt 0.244552 0.424115
vt 0.867336 0.424115
vt 0.867336 0.439857
vt 0.666597 0.779833
vt 0.666597 0.796134
vt 0.658441 0.796134
vt 0.658441 0.779833
vt 0.405164 0.590430
vt 0.397007 0.590430
vt 0.591115 0.457307
vt 0.599271 0.457307
vt 0.562947 0.649427
vt 0.562947 0.633126
vt 0.571393 0.633126
vt 0.571393 0.649427
vt 0.809690 0.432561
vt 0.809690 0.424115
vt 0.215122 0.039303
vt 0.223567 0.039303
vt 0.686974 0.646710
vt 0.686974 0.633126
vt 0.695130 0.633126
vt 0.695130 0.646710
vt 0.650285 0.796134
vt 0.650285 0.779833
vt 0.607427 0.457307
vt 0.388851 0.590430
vt 0.403466 0.036586
vt 0.411911 0.036586
vt 0.232013 0.039303
vt 0.395020 0.036586
vt 0.600505 0.646710
vt 0.600505 0.633126
vt 0.608951 0.633126
vt 0.608951 0.646710
vt 0.678818 0.646710
vt 0.678818 0.633126
vt 0.579839 0.633126
vt 0.579839 0.649427
vt 0.592060 0.646710
vt 0.592060 0.633126
vt 0.592060 0.796134
vt 0.592060 0.782550
vt 0.600505 0.782550
vt 0.600505 0.796134
vt 0.571393 0.796134
vt 0.571393 0.779833
vt 0.579839 0.779833
vt 0.579839 0.796134
vt 0.678818 0.796134
vt 0.678818 0.782550
vt 0.686974 0.782550
vt 0.686974 0.796134
vt 0.608951 0.782550
vt 0.608951 0.796134
vt 0.395020 0.172425
vt 0.403466 0.172425
vt 0.223567 0.169708
vt 0.232013 0.169708
vt 0.411911 0.172425
vt 0.397008 0.454590
vt 0.388851 0.454590
vt 0.599271 0.587713
vt 0.607427 0.587713
vt 0.658441 0.633126
vt 0.658441 0.649427
vt 0.650285 0.649427
vt 0.650285 0.633126
vt 0.695130 0.782550
vt 0.695130 0.796134
vt 0.215122 0.169708
vt 0.562947 0.796134
vt 0.562947 0.779833
vt 0.591115 0.587713
vt 0.405164 0.454590
vt 0.666597 0.633126
vt 0.666597 0.649427
vt 0.879557 0.424115
vt 0.504722 0.796134
vt 0.513168 0.796134
vt 0.521614 0.796134
vt 0.864468 0.215122
vt 0.872913 0.215122
vt 0.881359 0.215122
vt 0.621172 0.633126
vt 0.629618 0.633126
vt 0.638064 0.633126
s 1
usemtl Middle
f 31/1/31 33/2/33 48/3/33 47/4/31
f 14/5/14 29/6/29 30/7/30 15/8/15
f 32/9/32 8/10/8 23/11/23 22/12/22
f 1/13/1 2/14/2 16/15/16 35/16/35
f 15/17/15 30/18/30 28/19/28 13/20/13
f 8/21/8 9/22/9 24/23/24 23/24/23
f 2/14/2 3/25/3 17/26/17 16/15/16
f 9/27/9 32/28/32 22/29/22 24/30/24
f 10/31/10 11/32/11 26/33/26 25/34/25
f 4/35/4 18/36/18 46/37/40 45/38/39
f 11/39/11 12/40/12 27/41/27 26/42/26
f 5/43/5 19/44/19 41/45/38 42/46/37
f 12/47/12 10/48/10 25/49/25 27/50/27
f 34/51/34 36/52/36 21/53/21 7/54/7
f 13/55/13 28/56/28 29/57/29 14/58/14
f 18/59/18 28/60/28 46/61/40
f 23/62/23 28/60/28 18/59/18
f 33/63/33 21/64/21 22/65/22
f 35/66/35 22/65/22 21/64/21
f 35/66/35 36/67/36 37/68/36 17/69/17
f 17/69/17 20/70/20 27/71/27
f 20/70/20 40/72/38 27/71/27
f 26/73/26 30/74/30 29/75/29 25/76/25
f 29/75/29 24/77/24 16/78/16 25/76/25
f 35/66/35 16/78/16 24/77/24 22/65/22
f 16/78/16 17/69/17 27/71/27 25/76/25
f 24/77/24 29/75/29 28/60/28 23/62/23
f 1/79/1 32/80/32 9/81/9 2/82/2
f 9/81/9 14/83/14 10/84/10 2/82/2
f 9/81/9 8/85/8 13/86/13 14/83/14
f 8/85/8 4/87/4 13/86/13
f 11/88/11 15/89/15 5/90/5
f 4/87/4 45/91/39 13/86/13
f 6/92/6 12/93/12 39/94/37
f 3/95/3 12/93/12 6/92/6
f 2/82/2 10/84/10 12/93/12 3/95/3
f 11/88/11 10/84/10 14/83/14 15/89/15
f 1/79/1 7/96/7 32/80/32
f 31/97/31 32/80/32 7/96/7
f 1/79/1 3/95/3 38/98/34 34/99/34
f 4/87/4 8/85/8 47/100/31
f 18/59/18 48/101/33 23/62/23
f 7/102/7 21/103/21 33/2/33 31/1/31
f 1/79/1 34/99/34 7/96/7
f 35/66/35 21/64/21 36/67/36
f 6/104/6 20/105/20 37/106/36 38/107/34
f 3/108/3 1/109/1 35/110/35 17/111/17
f 38/107/34 37/106/36 36/52/36 34/51/34
f 17/69/17 37/68/36 20/70/20
f 38/98/34 3/95/3 6/92/6
f 39/112/37 40/113/38 20/114/20 6/115/6
f 27/71/27 40/72/38 41/116/38 26/73/26
f 39/94/37 12/93/12 11/88/11 42/117/37
f 42/46/37 41/45/38 40/113/38 39/112/37
f 42/117/37 11/88/11 5/90/5
f 43/118/39 44/119/40 19/120/19 5/121/5
f 15/89/15 43/122/39 5/90/5
f 30/74/30 44/123/40 46/61/40 28/60/28
f 45/38/39 46/37/40 44/119/40 43/118/39
f 13/86/13 45/91/39 43/122/39 15/89/15
f 23/62/23 48/101/33 33/63/33 22/65/22
f 47/4/31 48/3/33 18/124/18 4/125/4
f 47/100/31 8/85/8 32/80/32 31/97/31
f 19/126/19 26/73/26 41/116/38
f 44/123/40 30/74/30 19/126/19
f 26/73/26 19/126/19 30/74/30
f 79/127/38 81/128/37 96/129/37 95/130/38
f 62/131/29 77/132/14 78/133/13 63/134/28
f 80/135/27 56/136/26 71/137/11 70/138/12
f 49/139/17 50/140/16 64/141/2 83/142/3
f 63/143/28 78/144/13 76/145/15 61/146/30
f 56/147/26 57/148/25 72/149/10 71/150/11
f 50/140/16 51/151/35 65/152/1 64/141/2
f 57/148/25 80/153/27 70/154/12 72/149/10
f 58/155/24 59/156/23 74/157/8 73/158/9
f 52/159/19 66/160/5 94/161/39 93/162/40
f 59/163/23 60/164/22 75/165/32 74/166/8
f 53/167/18 67/168/42 89/169/31 90/170/33
f 60/171/22 58/172/24 73/173/9 75/174/32
f 82/175/36 84/176/34 69/177/6 55/178/20
f 61/179/30 76/180/15 77/181/14 62/182/29
f 66/183/5 76/184/15 94/185/39
f 71/186/11 76/184/15 66/183/5
f 81/187/37 69/188/6 70/189/12
f 83/190/3 70/189/12 69/188/6
f 83/190/3 84/191/34 85/192/34 65/193/1
f 65/193/1 68/194/43 75/195/32
f 68/194/43 88/196/31 75/195/32
f 74/197/8 78/198/13 77/199/14 73/200/9
f 77/199/14 72/201/10 64/202/2 73/200/9
f 83/190/3 64/202/2 72/201/10 70/189/12
f 64/202/2 65/193/1 75/195/32 73/200/9
f 72/201/10 77/199/14 76/184/15 71/186/11
f 49/203/17 80/204/27 57/205/25 50/206/16
f 57/205/25 62/207/29 58/208/24 50/206/16
f 57/205/25 56/209/26 61/210/30 62/207/29
f 56/209/26 52/211/19 61/210/30
f 59/212/23 63/213/28 53/214/18
f 52/211/19 93/215/40 61/210/30
f 54/216/41 60/217/22 87/218/33
f 51/219/35 60/217/22 54/216/41
f 50/206/16 58/208/24 60/217/22 51/219/35
f 59/212/23 58/208/24 62/207/29 63/213/28
f 49/203/17 55/220/20 80/204/27
f 79/221/38 80/204/27 55/220/20
f 49/203/17 51/219/35 86/222/36 82/223/36
f 52/211/19 56/209/26 95/224/38
f 66/183/5 96/225/37 71/186/11
f 55/226/20 69/227/6 81/128/37 79/127/38
f 49/203/17 82/223/36 55/220/20
f 83/190/3 69/188/6 84/191/34
f 54/228/41 68/229/43 85/230/34 86/231/36
f 51/232/35 49/233/17 83/234/3 65/235/1
f 86/231/36 85/230/34 84/176/34 82/175/36
f 65/193/1 85/192/34 68/194/43
f 86/222/36 51/219/35 54/216/41
f 87/236/33 88/237/31 68/238/43 54/239/41
f 75/195/32 88/196/31 89/240/31 74/197/8
f 87/218/33 60/217/22 59/212/23 90/241/33
f 90/170/33 89/169/31 88/237/31 87/236/33
f 90/241/33 59/212/23 53/214/18
f 91/242/40 92/243/39 67/244/42 53/245/18
f 63/213/28 91/246/40 53/214/18
f 78/198/13 92/247/39 94/185/39 76/184/15
f 93/162/40 94/161/39 92/243/39 91/242/40
f 61/210/30 93/215/40 91/246/40 63/213/28
f 71/186/11 96/225/37 81/187/37 70/189/12
f 95/130/38 96/129/37 66/248/5 52/249/19
f 95/224/38 56/209/26 80/204/27 79/221/38
f 67/250/42 74/197/8 89/240/31
f 92/247/39 78/198/13 67/250/42
f 74/197/8 67/250/42 78/198/13
f 127/251/37 129/252/31 144/253/31 143/254/37
f 110/255/56 125/256/71 126/257/72 111/258/57
f 128/259/73 104/260/50 119/261/65 118/262/64
f 97/263/44 98/264/45 112/265/58 131/266/75
f 111/267/57 126/268/72 124/269/70 109/270/55
f 104/271/50 105/272/51 120/273/66 119/274/65
f 98/275/45 99/276/46 113/277/59 112/278/58
f 105/272/51 128/279/73 118/280/64 120/273/66
f 106/281/52 107/282/53 122/283/68 121/284/67
f 100/285/47 114/286/60 142/287/78 141/288/77
f 107/289/53 108/290/54 123/291/69 122/292/68
f 101/293/19 115/294/61 137/295/33 138/296/38
f 108/297/54 106/281/52 121/284/67 123/298/69
f 130/299/74 132/300/76 117/301/63 103/302/49
f 109/303/55 124/304/70 125/305/71 110/306/56
f 114/307/60 124/308/70 142/309/78
f 119/310/65 124/308/70 114/307/60
f 129/311/31 117/312/63 118/313/64
f 131/314/75 118/313/64 117/312/63
f 131/314/75 132/315/76 133/316/76 113/317/59
f 113/317/59 116/318/62 123/319/69
f 116/318/62 136/320/33 123/319/69
f 122/321/68 126/322/72 125/323/71 121/324/67
f 125/323/71 120/325/66 112/326/58 121/324/67
f 131/314/75 112/326/58 120/325/66 118/313/64
f 112/326/58 113/317/59 123/319/69 121/324/67
f 120/325/66 125/323/71 124/308/70 119/310/65
f 97/327/44 128/328/73 105/329/51 98/330/45
f 105/329/51 110/331/56 106/332/52 98/330/45
f 105/329/51 104/333/50 109/334/55 110/331/56
f 104/333/50 100/335/47 109/334/55
f 107/336/53 111/337/57 101/338/19
f 100/335/47 141/339/77 109/334/55
f 102/340/48 108/341/54 135/342/38
f 99/343/46 108/341/54 102/340/48
f 98/330/45 106/332/52 108/341/54 99/343/46
f 107/336/53 106/332/52 110/331/56 111/337/57
f 97/327/44 103/344/49 128/328/73
f 127/345/37 128/328/73 103/344/49
f 97/327/44 99/343/46 134/346/74 130/347/74
f 100/335/47 104/333/50 143/348/37
f 114/307/60 144/349/31 119/310/65
f 103/350/49 117/351/63 129/252/31 127/251/37
f 97/327/44 130/347/74 103/344/49
f 131/314/75 117/312/63 132/315/76
f 102/352/48 116/353/62 133/354/76 134/355/74
f 99/356/46 97/357/44 131/358/75 113/359/59
f 134/355/74 133/354/76 132/300/76 130/299/74
f 113/317/59 133/316/76 116/318/62
f 134/346/74 99/343/46 102/340/48
f 135/360/38 136/361/33 116/362/62 102/363/48
f 123/319/69 136/320/33 137/364/33 122/321/68
f 135/342/38 108/341/54 107/336/53 138/365/38
f 138/296/38 137/295/33 136/361/33 135/360/38
f 138/365/38 107/336/53 101/338/19
f 139/366/77 140/367/78 115/368/61 101/369/19
f 111/337/57 139/370/77 101/338/19
f 126/322/72 140/371/78 142/309/78 124/308/70
f 141/288/77 142/287/78 140/367/78 139/366/77
f 109/334/55 141/339/77 139/370/77 111/337/57
f 119/310/65 144/349/31 129/311/31 118/313/64
f 143/254/37 144/253/31 114/372/60 100/373/47
f 143/348/37 104/333/50 128/328/73 127/345/37
f 115/374/61 122/321/68 137/364/33
f 140/371/78 126/322/72 115/374/61
f 122/321/68 115/374/61 126/322/72
f 175/375/33 177/376/38 192/377/38 191/378/33
f 158/379/71 173/380/56 174/381/55 159/382/70
f 176/383/69 152/384/68 167/385/53 166/386/54
f 145/387/59 146/388/58 160/389/45 179/390/46
f 159/391/70 174/392/55 172/393/57 157/394/72
f 152/395/68 153/396/67 168/397/52 167/398/53
f 146/399/58 147/400/75 161/401/44 160/402/45
f 153/396/67 176/403/69 166/404/54 168/397/52
f 154/405/66 155/406/65 170/407/50 169/408/51
f 148/409/61 162/410/80 190/411/77 189/412/78
f 155/413/65 156/414/64 171/415/73 170/416/50
f 149/417/60 163/418/81 185/419/37 186/420/31
f 156/421/64 154/405/66 169/408/51 171/422/73
f 178/423/76 180/424/74 165/425/48 151/426/62
f 157/427/72 172/428/57 173/429/56 158/430/71
f 162/431/80 172/432/57 190/433/77
f 167/434/53 172/432/57 162/431/80
f 177/435/38 165/436/48 166/437/54
f 179/438/46 166/437/54 165/436/48
f 179/438/46 180/439/74 181/440/74 161/441/44
f 161/441/44 164/442/82 171/443/73
f 164/442/82 184/444/37 171/443/73
f 170/445/50 174/446/55 173/447/56 169/448/51
f 173/447/56 168/449/52 160/450/45 169/448/51
f 179/438/46 160/450/45 168/449/52 166/437/54
f 160/450/45 161/441/44 171/443/73 169/448/51
f 168/449/52 173/447/56 172/432/57 167/434/53
f 145/451/59 176/452/69 153/453/67 146/454/58
f 153/453/67 158/455/71 154/456/66 146/454/58
f 153/453/67 152/457/68 157/458/72 158/455/71
f 152/457/68 148/459/61 157/458/72
f 155/460/65 159/461/70 149/462/60
f 148/459/61 189/463/78 157/458/72
f 150/464/79 156/465/64 183/466/31
f 147/467/75 156/465/64 150/464/79
f 146/454/58 154/456/66 156/465/64 147/467/75
f 155/460/65 154/456/66 158/455/71 159/461/70
f 145/451/59 151/468/62 176/452/69
f 175/469/33 176/452/69 151/468/62
f 145/451/59 147/467/75 182/470/76 178/471/76
f 148/459/61 152/457/68 191/472/33
f 162/431/80 192/473/38 167/434/53
f 151/474/62 165/475/48 177/376/38 175/375/33
f 145/451/59 178/471/76 151/468/62
f 179/438/46 165/436/48 180/439/74
f 150/476/79 164/477/82 181/478/74 182/479/76
f 147/480/75 145/481/59 179/482/46 161/483/44
f 182/479/76 181/478/74 180/424/74 178/423/76
f 161/441/44 181/440/74 164/442/82
f 182/470/76 147/467/75 150/464/79
f 183/484/31 184/485/37 164/486/82 150/487/79
f 171/443/73 184/444/37 185/488/37 170/445/50
f 183/466/31 156/465/64 155/460/65 186/489/31
f 186/420/31 185/419/37 184/485/37 183/484/31
f 186/489/31 155/460/65 149/462/60
f 187/490/78 188/491/77 163/492/81 149/493/60
f 159/461/70 187/494/78 149/462/60
f 174/446/55 188/495/77 190/433/77 172/432/57
f 189/412/78 190/411/77 188/491/77 187/490/78
f 157/458/72 189/463/78 187/494/78 159/461/70
f 167/434/53 192/473/38 177/435/38 166/437/54
f 191/378/33 192/377/38 162/496/80 148/497/61
f 191/472/33 152/457/68 176/452/69 175/469/33
f 163/498/81 170/445/50 185/488/37
f 188/495/77 174/446/55 163/498/81
f 170/445/50 163/498/81 174/446/55
f 214/499/87 435/500/76 196/501/76 203/502/87
f 213/503/88 434/504/88 200/505/86 205/506/88
f 462/507/88 215/508/88 221/509/92 465/510/36
f 307/511/37 316/512/103 241/513/74 299/514/95
f 211/515/89 209/516/89 197/517/84 206/518/89
f 201/519/31 193/520/31 209/516/89 211/515/89
f 195/521/63 201/519/31 211/515/89 204/522/34
f 204/522/34 211/515/89 206/518/89 199/523/34
f 274/524/37 234/525/37 233/526/95 273/527/95
f 305/528/33 312/529/100 232/530/87 263/531/87
f 259/532/97 218/533/78 212/534/90 269/535/39
f 465/536/36 221/537/92 217/538/33 258/539/99
f 266/540/34 220/541/34 215/508/88 462/507/88
f 204/542/34 199/543/34 434/504/88 213/503/88
f 195/544/63 204/542/34 213/503/88 435/545/76
f 435/545/76 213/503/88 205/506/88 196/546/76
f 201/547/31 195/548/63 435/500/76 214/499/87
f 193/549/31 201/547/31 214/499/87 202/550/87
f 202/550/87 214/499/87 203/502/87 194/551/83
f 261/552/89 216/553/89 220/554/34 266/555/34
f 270/556/40 219/557/91 218/533/78 259/532/97
f 269/558/39 212/559/90 216/553/89 261/552/89
f 258/539/99 217/538/33 219/560/91 270/561/40
f 433/562/88 431/563/74 225/564/74 227/565/88
f 304/566/31 237/567/31 240/568/89 294/569/89
f 231/570/89 230/571/89 222/572/37 228/573/37
f 216/553/89 212/559/90 230/571/89 231/570/89
f 220/554/34 216/553/89 231/570/89 226/574/34
f 226/574/34 231/570/89 228/573/37 224/575/94
f 295/576/87 244/577/76 247/578/98 298/579/31
f 299/514/95 241/513/74 314/580/102 302/581/38
f 263/531/87 232/530/87 237/582/31 304/583/31
f 226/584/34 224/585/94 431/563/74 433/562/88
f 220/541/34 226/584/34 433/562/88 215/508/88
f 215/508/88 433/562/88 227/565/88 221/509/92
f 273/527/95 233/526/95 329/586/105 277/587/38
f 278/588/89 235/589/89 234/590/37 274/591/37
f 294/569/89 240/568/89 316/592/103 307/593/37
f 298/594/31 247/595/98 235/589/89 278/588/89
f 280/596/99 236/597/36 328/598/21 310/599/33
f 310/600/33 328/601/21 244/577/76 295/576/87
f 277/602/38 329/603/105 236/597/36 280/596/99
f 243/604/87 232/530/87 312/529/100 317/605/87
f 377/606/88 244/607/76 328/608/21 384/609/36
f 237/567/31 318/610/31 326/611/89 240/568/89
f 240/568/89 326/611/89 320/612/89 316/592/103
f 284/613/97 246/614/97 242/615/39 381/616/39
f 384/617/36 328/618/21 327/619/33 283/620/99
f 288/621/34 247/622/98 244/607/76 377/606/88
f 318/623/31 237/582/31 232/530/87 243/604/87
f 313/624/101 318/623/31 243/604/87 239/625/78
f 239/625/78 243/604/87 317/605/87 311/626/78
f 378/627/89 245/628/89 247/595/98 288/629/34
f 383/630/40 325/631/104 246/614/97 284/613/97
f 381/632/39 242/633/39 245/628/89 378/627/89
f 283/620/99 327/619/33 325/634/104 383/635/40
f 333/636/89 251/637/39 330/638/106 249/639/37
f 245/628/89 242/633/39 251/637/39 333/636/89
f 247/595/98 245/628/89 333/636/89 235/589/89
f 235/589/89 333/636/89 249/639/37 234/590/37
f 250/640/77 330/641/106 251/642/39 253/643/97
f 253/643/97 251/642/39 242/615/39 246/614/97
f 248/644/77 250/640/77 253/643/97 252/645/97
f 252/645/97 253/643/97 246/614/97 325/631/104
f 233/526/95 234/525/37 249/646/37 254/647/95
f 254/647/95 249/646/37 330/648/106 250/649/77
f 329/586/105 233/526/95 254/647/95 331/650/95
f 331/650/95 254/647/95 250/649/77 248/651/77
f 224/652/94 228/653/37 255/654/95 431/655/74
f 431/655/74 255/654/95 229/656/95 225/657/74
f 228/653/37 222/658/37 432/659/95 255/654/95
f 255/654/95 432/659/95 223/660/93 229/656/95
f 239/661/78 311/662/78 323/663/97 256/664/97
f 256/664/97 323/663/97 238/665/96 321/666/97
f 313/667/101 239/661/78 256/664/97 319/668/39
f 319/668/39 256/664/97 321/666/97 315/669/39
f 322/670/38 282/671/99 290/672/40 238/673/96
f 282/671/99 283/620/99 383/635/40 290/672/40
f 315/674/39 382/675/39 286/676/89 320/612/89
f 382/675/39 381/632/39 378/627/89 286/676/89
f 238/665/96 290/677/40 285/678/97 321/666/97
f 290/677/40 383/630/40 284/613/97 285/678/97
f 320/612/89 286/676/89 289/679/34 316/592/103
f 286/676/89 378/627/89 288/629/34 289/679/34
f 316/680/103 289/681/34 376/682/88 241/683/74
f 289/681/34 288/621/34 377/606/88 376/682/88
f 314/684/102 287/685/36 282/671/99 322/670/38
f 287/685/36 384/617/36 283/620/99 282/671/99
f 321/666/97 285/678/97 382/686/39 315/669/39
f 285/678/97 284/613/97 381/616/39 382/686/39
f 241/683/74 376/682/88 287/687/36 314/688/102
f 376/682/88 377/606/88 384/609/36 287/687/36
f 276/689/38 277/602/38 280/596/99 281/690/99
f 210/691/40 291/692/99 306/693/33 194/694/83
f 291/692/99 292/695/99 305/696/33 306/693/33
f 219/697/91 309/698/33 296/699/87 218/700/78
f 309/698/33 310/600/33 295/576/87 296/699/87
f 281/690/99 280/596/99 310/599/33 309/701/33
f 212/559/90 297/702/31 279/703/89 230/571/89
f 297/702/31 298/594/31 278/588/89 279/703/89
f 209/516/89 293/704/89 308/705/37 197/517/84
f 293/704/89 294/569/89 307/593/37 308/705/37
f 230/571/89 279/703/89 275/706/37 222/572/37
f 279/703/89 278/588/89 274/591/37 275/706/37
f 432/659/95 272/707/95 276/708/38 223/660/93
f 272/707/95 273/527/95 277/587/38 276/708/38
f 202/550/87 264/709/87 303/710/31 193/549/31
f 264/709/87 263/531/87 304/583/31 303/710/31
f 208/711/77 300/712/95 301/713/38 198/714/85
f 300/712/95 299/514/95 302/581/38 301/713/38
f 218/700/78 296/699/87 297/715/31 212/716/90
f 296/699/87 295/576/87 298/579/31 297/715/31
f 193/520/31 303/717/31 293/704/89 209/516/89
f 303/717/31 304/566/31 294/569/89 293/704/89
f 207/718/38 257/719/99 271/720/40 198/721/85
f 257/719/99 258/539/99 270/561/40 271/720/40
f 197/517/84 268/722/39 262/723/89 206/518/89
f 268/722/39 269/558/39 261/552/89 262/723/89
f 198/724/85 271/725/40 260/726/97 208/727/77
f 271/725/40 270/556/40 259/532/97 260/726/97
f 206/518/89 262/723/89 267/728/34 199/523/34
f 262/723/89 261/552/89 266/555/34 267/728/34
f 199/543/34 267/729/34 461/730/88 434/504/88
f 267/729/34 266/540/34 462/507/88 461/730/88
f 200/731/86 265/732/36 257/719/99 207/718/38
f 265/732/36 465/536/36 258/539/99 257/719/99
f 208/727/77 260/726/97 268/733/39 197/734/84
f 260/726/97 259/532/97 269/535/39 268/733/39
f 198/735/85 301/736/38 291/692/99 210/691/40
f 301/736/38 302/737/38 292/695/99 291/692/99
f 194/551/83 306/738/33 264/709/87 202/550/87
f 306/738/33 305/528/33 263/531/87 264/709/87
f 222/658/37 275/739/37 272/707/95 432/659/95
f 275/739/37 274/524/37 273/527/95 272/707/95
f 197/740/84 308/741/37 300/712/95 208/711/77
f 308/741/37 307/511/37 299/514/95 300/712/95
f 434/504/88 461/730/88 265/742/36 200/505/86
f 461/730/88 462/507/88 465/510/36 265/742/36
f 427/743/77 344/744/111 351/745/37 419/746/95
f 387/747/77 336/748/77 335/749/95 386/750/95
f 425/751/76 341/752/109 334/753/87 379/754/87
f 422/755/74 345/756/112 350/757/34 412/758/88
f 319/759/39 315/674/39 320/612/89 326/611/89
f 313/760/101 319/759/39 326/611/89 318/610/31
f 424/761/78 340/762/78 349/763/97 414/764/97
f 415/765/87 360/766/31 365/767/114 418/768/78
f 419/746/95 351/745/37 345/769/112 422/770/74
f 379/754/87 334/753/87 340/771/78 424/772/78
f 386/750/95 335/749/95 339/773/108 390/774/74
f 391/775/97 337/776/97 336/777/77 387/778/77
f 414/764/97 349/763/97 344/779/111 427/780/77
f 418/781/78 365/782/114 337/776/97 391/775/97
f 393/783/88 338/784/34 366/785/115 430/786/76
f 430/787/76 366/788/115 360/766/31 415/765/87
f 412/758/88 350/757/34 341/789/109 425/790/76
f 390/791/74 339/792/108 338/784/34 393/783/88
f 359/793/87 334/753/87 341/752/109 348/794/87
f 398/795/89 360/796/31 366/797/115 403/798/34
f 357/799/97 355/800/40 342/801/40 352/802/97
f 346/803/78 332/804/107 355/800/40 357/799/97
f 340/762/78 346/803/78 357/799/97 349/763/97
f 349/763/97 357/799/97 352/802/97 344/779/111
f 399/805/99 363/806/99 358/807/40 408/808/40
f 403/809/34 366/810/115 362/811/76 396/812/88
f 405/813/39 365/814/114 360/796/31 398/795/89
f 346/815/78 340/771/78 334/753/87 359/793/87
f 332/816/107 346/815/78 359/793/87 347/817/33
f 347/817/33 359/793/87 348/794/87 324/818/33
f 401/819/97 361/820/97 365/782/114 405/821/39
f 409/822/36 364/823/113 363/806/99 399/805/99
f 408/824/40 358/825/40 361/820/97 401/819/97
f 396/812/88 362/811/76 364/826/113 409/827/36
f 372/828/97 371/829/40 367/830/85 369/831/77
f 361/820/97 358/825/40 371/829/40 372/828/97
f 365/782/114 361/820/97 372/828/97 337/776/97
f 337/776/97 372/828/97 369/831/77 336/777/77
f 526/832/38 367/833/85 371/834/40 373/835/99
f 373/835/99 371/834/40 358/807/40 363/806/99
f 368/836/38 526/832/38 373/835/99 527/837/99
f 527/837/99 373/835/99 363/806/99 364/823/113
f 335/749/95 336/748/77 369/838/77 374/839/95
f 374/839/95 369/838/77 367/840/85 526/841/38
f 339/773/108 335/749/95 374/839/95 370/842/95
f 370/842/95 374/839/95 526/841/38 368/843/38
f 347/844/33 324/845/33 356/846/99 375/847/99
f 375/847/99 356/846/99 343/848/110 354/849/99
f 332/850/107 347/844/33 375/847/99 355/851/40
f 355/851/40 375/847/99 354/849/99 342/852/40
f 353/853/74 395/854/88 410/855/36 343/856/110
f 395/854/88 396/812/88 409/827/36 410/855/36
f 342/801/40 407/857/40 402/858/97 352/802/97
f 407/857/40 408/824/40 401/819/97 402/858/97
f 343/848/110 410/859/36 400/860/99 354/849/99
f 410/859/36 409/822/36 399/805/99 400/860/99
f 352/802/97 402/858/97 406/861/39 344/779/111
f 402/858/97 401/819/97 405/821/39 406/861/39
f 344/862/111 406/863/39 397/864/89 351/865/37
f 406/863/39 405/813/39 398/795/89 397/864/89
f 345/866/112 404/867/34 395/854/88 353/853/74
f 404/867/34 403/809/34 396/812/88 395/854/88
f 354/849/99 400/860/99 407/868/40 342/852/40
f 400/860/99 399/805/99 408/808/40 407/868/40
f 351/865/37 397/864/89 404/869/34 345/870/112
f 397/864/89 398/795/89 403/798/34 404/869/34
f 329/871/105 389/872/74 394/873/88 236/874/36
f 389/872/74 390/791/74 393/783/88 394/873/88
f 411/875/88 412/758/88 425/790/76 426/876/76
f 328/877/21 429/878/76 416/879/87 327/880/33
f 429/878/76 430/787/76 415/765/87 416/879/87
f 236/874/36 394/873/88 429/881/76 328/882/21
f 394/873/88 393/783/88 430/786/76 429/881/76
f 325/631/104 417/883/78 392/884/97 252/645/97
f 417/883/78 418/781/78 391/775/97 392/884/97
f 323/663/97 413/885/97 428/886/77 238/665/96
f 413/885/97 414/764/97 427/780/77 428/886/77
f 252/645/97 392/884/97 388/887/77 248/644/77
f 392/884/97 391/775/97 387/778/77 388/887/77
f 331/650/95 385/888/95 389/889/74 329/586/105
f 385/888/95 386/750/95 390/774/74 389/889/74
f 317/605/87 380/890/87 423/891/78 311/626/78
f 380/890/87 379/754/87 424/772/78 423/891/78
f 322/892/38 420/893/95 421/894/74 314/895/102
f 420/893/95 419/746/95 422/770/74 421/894/74
f 327/880/33 416/879/87 417/896/78 325/897/104
f 416/879/87 415/765/87 418/768/78 417/896/78
f 311/662/78 423/898/78 413/885/97 323/663/97
f 423/898/78 424/761/78 414/764/97 413/885/97
f 421/899/74 422/755/74 412/758/88 411/875/88
f 312/529/100 426/900/76 380/890/87 317/605/87
f 426/900/76 425/751/76 379/754/87 380/890/87
f 248/651/77 388/901/77 385/888/95 331/650/95
f 388/901/77 387/747/77 386/750/95 385/888/95
f 238/902/96 428/903/77 420/893/95 322/892/38
f 428/903/77 427/743/77 419/746/95 420/893/95
f 501/904/76 510/905/120 446/906/31 493/907/87
f 468/908/76 438/909/76 437/910/87 467/911/87
f 499/912/77 506/913/118 436/914/95 463/915/95
f 496/916/78 508/917/119 445/918/39 486/919/97
f 498/920/74 441/921/74 444/922/88 488/923/88
f 489/924/95 449/925/37 452/926/117 492/927/74
f 493/907/87 446/906/31 508/928/119 496/929/78
f 463/915/95 436/914/95 441/930/74 498/931/74
f 467/911/87 437/910/87 522/932/122 471/933/78
f 472/934/88 439/935/88 438/936/76 468/937/76
f 488/923/88 444/922/88 510/938/120 501/939/76
f 492/940/74 452/941/117 439/935/88 472/934/88
f 474/942/97 440/943/39 521/944/106 504/945/77
f 504/946/77 521/947/106 449/925/37 489/924/95
f 486/919/97 445/918/39 506/948/118 499/949/77
f 471/950/78 522/951/122 440/943/39 474/942/97
f 448/952/95 436/914/95 506/913/118 511/953/95
f 529/954/89 449/955/37 521/956/106 536/957/39
f 441/921/74 512/958/74 519/959/88 444/922/88
f 444/922/88 519/959/88 514/960/88 510/938/120
f 478/961/99 451/962/99 447/963/36 533/964/36
f 536/965/39 521/966/106 520/967/77 477/968/97
f 482/969/34 452/970/117 449/955/37 529/954/89
f 512/971/74 441/930/74 436/914/95 448/952/95
f 507/972/102 512/971/74 448/952/95 443/973/38
f 443/973/38 448/952/95 511/953/95 505/974/38
f 530/975/88 450/976/88 452/941/117 482/977/34
f 535/978/40 518/979/121 451/962/99 478/961/99
f 533/980/36 447/981/36 450/976/88 530/975/88
f 477/968/97 520/967/77 518/982/121 535/983/40
f 525/984/88 456/985/36 523/986/123 454/987/76
f 450/976/88 447/981/36 456/985/36 525/984/88
f 452/941/117 450/976/88 525/984/88 439/935/88
f 439/935/88 525/984/88 454/987/76 438/936/76
f 455/988/33 523/989/123 456/990/36 458/991/99
f 458/991/99 456/990/36 447/963/36 451/962/99
f 453/992/33 455/988/33 458/991/99 457/993/99
f 457/993/99 458/991/99 451/962/99 518/979/121
f 437/910/87 438/909/76 454/994/76 459/995/87
f 459/995/87 454/994/76 523/996/123 455/997/33
f 522/932/122 437/910/87 459/995/87 524/998/87
f 524/998/87 459/995/87 455/997/33 453/999/33
f 443/1000/38 505/1001/38 517/1002/99 460/1003/99
f 460/1003/99 517/1002/99 442/1004/116 515/1005/99
f 507/1006/102 443/1000/38 460/1003/99 513/1007/36
f 513/1007/36 460/1003/99 515/1005/99 509/1008/36
f 516/1009/78 476/1010/97 484/1011/40 442/1012/116
f 476/1010/97 477/968/97 535/983/40 484/1011/40
f 509/1013/36 534/1014/36 480/1015/88 514/960/88
f 534/1014/36 533/980/36 530/975/88 480/1015/88
f 442/1004/116 484/1016/40 479/1017/99 515/1005/99
f 484/1016/40 535/978/40 478/961/99 479/1017/99
f 514/960/88 480/1015/88 483/1018/34 510/938/120
f 480/1015/88 530/975/88 482/977/34 483/1018/34
f 510/1019/120 483/1020/34 528/1021/89 446/1022/31
f 483/1020/34 482/969/34 529/954/89 528/1021/89
f 508/1023/119 481/1024/39 476/1010/97 516/1009/78
f 481/1024/39 536/965/39 477/968/97 476/1010/97
f 515/1005/99 479/1017/99 534/1025/36 509/1008/36
f 479/1017/99 478/961/99 533/964/36 534/1025/36
f 446/1022/31 528/1021/89 481/1026/39 508/1027/119
f 528/1021/89 529/954/89 536/957/39 481/1026/39
f 194/1028/83 470/1029/78 475/1030/97 210/1031/40
f 470/1029/78 471/950/78 474/942/97 475/1030/97
f 485/1032/97 486/919/97 499/949/77 500/1033/77
f 198/1034/85 503/1035/77 490/1036/95 207/1037/38
f 503/1035/77 504/946/77 489/924/95 490/1036/95
f 210/1031/40 475/1030/97 503/1038/77 198/1039/85
f 475/1030/97 474/942/97 504/945/77 503/1038/77
f 200/505/86 491/1040/74 473/1041/88 205/506/88
f 491/1040/74 492/940/74 472/934/88 473/1041/88
f 227/565/88 487/1042/88 502/1043/76 221/509/92
f 487/1042/88 488/923/88 501/939/76 502/1043/76
f 205/506/88 473/1041/88 469/1044/76 196/546/76
f 473/1041/88 472/934/88 468/937/76 469/1044/76
f 203/502/87 466/1045/87 470/1046/78 194/551/83
f 466/1045/87 467/911/87 471/933/78 470/1046/78
f 229/656/95 464/1047/95 497/1048/74 225/657/74
f 464/1047/95 463/915/95 498/931/74 497/1048/74
f 217/1049/33 494/1050/87 495/1051/78 219/1052/91
f 494/1050/87 493/907/87 496/929/78 495/1051/78
f 207/1037/38 490/1036/95 491/1053/74 200/1054/86
f 490/1036/95 489/924/95 492/927/74 491/1053/74
f 225/564/74 497/1055/74 487/1042/88 227/565/88
f 497/1055/74 498/920/74 488/923/88 487/1042/88
f 485/1032/97 567/1056/40 219/1057/91 495/1058/78
f 495/1058/78 496/916/78 486/919/97 485/1032/97
f 223/660/93 500/1059/77 464/1047/95 229/656/95
f 500/1059/77 499/912/77 463/915/95 464/1047/95
f 196/501/76 469/1060/76 466/1045/87 203/502/87
f 469/1060/76 468/908/76 467/911/87 466/1045/87
f 221/1061/92 502/1062/76 494/1050/87 217/1049/33
f 502/1062/76 501/904/76 493/907/87 494/1050/87
f 563/1063/33 364/1064/113 362/1065/76 555/1066/87
f 539/1067/33 324/818/33 348/794/87 538/1068/87
f 561/1069/37 339/773/108 370/842/95 531/1070/95
f 558/1071/31 366/1072/115 338/1073/34 548/1074/89
f 513/1075/36 509/1013/36 514/960/88 519/959/88
f 507/1076/102 513/1075/36 519/959/88 512/958/74
f 560/1077/38 368/836/38 527/837/99 550/1078/99
f 551/1079/95 353/1080/74 343/1081/110 554/1082/38
f 555/1066/87 362/1065/76 366/1083/115 558/1084/31
f 531/1070/95 370/842/95 368/843/38 560/1085/38
f 538/1068/87 348/794/87 341/752/109 542/1086/31
f 543/1087/99 356/846/99 324/845/33 539/1088/33
f 550/1078/99 527/837/99 364/823/113 563/1089/33
f 554/1090/38 343/848/110 356/846/99 543/1087/99
f 545/1091/89 350/1092/34 345/1093/112 566/1094/37
f 566/1095/37 345/1096/112 353/1080/74 551/1079/95
f 548/1074/89 338/1073/34 339/1097/108 561/1098/37
f 542/1099/31 341/1100/109 350/1092/34 545/1091/89
f 522/1101/122 541/1102/31 546/1103/89 440/1104/39
f 541/1102/31 542/1099/31 545/1091/89 546/1103/89
f 445/1105/39 547/1106/89 562/1107/37 506/1108/118
f 547/1106/89 548/1074/89 561/1098/37 562/1107/37
f 521/1109/106 565/1110/37 552/1111/95 520/1112/77
f 565/1110/37 566/1095/37 551/1079/95 552/1111/95
f 440/1104/39 546/1103/89 565/1113/37 521/1114/106
f 546/1103/89 545/1091/89 566/1094/37 565/1113/37
f 518/979/121 553/1115/38 544/1116/99 457/993/99
f 553/1115/38 554/1090/38 543/1087/99 544/1116/99
f 517/1002/99 549/1117/99 564/1118/33 442/1004/116
f 549/1117/99 550/1078/99 563/1089/33 564/1118/33
f 457/993/99 544/1116/99 540/1119/33 453/992/33
f 544/1116/99 543/1087/99 539/1088/33 540/1119/33
f 524/998/87 537/1120/87 541/1121/31 522/932/122
f 537/1120/87 538/1068/87 542/1086/31 541/1121/31
f 511/953/95 532/1122/95 559/1123/38 505/974/38
f 532/1122/95 531/1070/95 560/1085/38 559/1123/38
f 516/1124/78 556/1125/87 557/1126/31 508/1127/119
f 556/1125/87 555/1066/87 558/1084/31 557/1126/31
f 520/1112/77 552/1111/95 553/1128/38 518/1129/121
f 552/1111/95 551/1079/95 554/1082/38 553/1128/38
f 505/1001/38 559/1130/38 549/1117/99 517/1002/99
f 559/1130/38 560/1077/38 550/1078/99 549/1117/99
f 508/1131/119 557/1132/31 547/1106/89 445/1105/39
f 557/1132/31 558/1071/31 548/1074/89 547/1106/89
f 506/913/118 562/1133/37 532/1122/95 511/953/95
f 562/1133/37 561/1069/37 531/1070/95 532/1122/95
f 453/999/33 540/1134/33 537/1120/87 524/998/87
f 540/1134/33 539/1067/33 538/1068/87 537/1120/87
f 442/1135/116 564/1136/33 556/1125/87 516/1124/78
f 564/1136/33 563/1063/33 555/1066/87 556/1125/87
f 485/1032/97 500/1033/77 223/1137/93 567/1056/40
f 223/1138/93 276/689/38 281/690/99 567/1139/40
f 219/1140/91 567/1139/40 281/690/99 309/701/33
f 312/1141/100 568/1142/36 411/875/88 426/876/76
f 314/1143/102 421/899/74 411/875/88 568/1142/36
f 292/695/99 302/737/38 314/1144/102 568/1145/36
f 292/695/99 568/1145/36 312/1146/100 305/696/33